<svg width="109" height="26" viewBox="0 0 109 26" fill="none" xmlns="http://www.w3.org/2000/svg">
<g clip-path="url(#clip0)">
<path d="M73.0992 21.67C73.0992 19.876 74.0312 18.6181 76.5522 17.5941L82.0332 15.4041V13.4041C82.0332 10.9821 81.0662 9.78705 79.4412 9.78705C77.9792 9.78705 77.0832 10.818 76.8852 12.973C76.7222 14.721 75.9242 15.465 74.6952 15.465C74.192 15.4749 73.7053 15.2848 73.3422 14.9362C72.979 14.5877 72.769 14.1093 72.7582 13.606C72.7566 13.5289 72.76 13.4518 72.7682 13.3751C72.7682 10.7191 75.8252 8.42505 79.8382 8.42505C84.5912 8.42505 86.7812 10.451 86.8272 14.301L86.8562 21.575C86.8562 22.501 87.3562 23.0651 88.0852 23.0651C88.3551 23.0686 88.6216 23.0038 88.8597 22.8767C89.0978 22.7496 89.3 22.5642 89.4472 22.338L89.6102 22.402C89.3683 23.2403 88.8501 23.9722 88.1397 24.4787C87.4293 24.9852 86.5686 25.2366 85.6972 25.192C84.8677 25.2502 84.0463 24.9963 83.3944 24.4802C82.7424 23.964 82.3069 23.2228 82.1732 22.402C81.5965 23.2651 80.8172 23.9737 79.9034 24.4662C78.9896 24.9586 77.9692 25.2198 76.9312 25.2271C76.4412 25.2666 75.9483 25.2038 75.4838 25.0427C75.0193 24.8816 74.5934 24.6256 74.2331 24.2911C73.8727 23.9567 73.5859 23.551 73.3907 23.0997C73.1955 22.6485 73.0962 22.1617 73.0992 21.67V21.67ZM79.6742 22.6021C80.1329 22.5925 80.5841 22.4835 80.9966 22.2825C81.4091 22.0816 81.773 21.7935 82.0632 21.438L82.0342 16.657L80.0082 17.583C78.2602 18.383 77.7192 19.243 77.7192 20.57C77.6771 21.0654 77.8333 21.5572 78.1536 21.9374C78.4738 22.3177 78.9319 22.5553 79.4272 22.598C79.5098 22.6034 79.5926 22.6034 79.6752 22.598L79.6742 22.6021Z" fill="white"/>
<path d="M96.9951 8.45605C97.8445 8.43779 98.6878 8.60369 99.4671 8.94238C100.246 9.28107 100.943 9.78448 101.509 10.418V3.93604C101.509 3.40604 101.474 3.23603 101.009 3.00403L99.5471 2.24103V1.65906L106.419 -0.000976562V21.582C106.419 22.082 106.519 22.2111 106.948 22.5081L108.448 23.5081V24.09L101.506 24.9901V22.398C100.935 23.2663 100.157 23.979 99.2415 24.472C98.3266 24.9651 97.3034 25.2232 96.2641 25.223C92.5491 25.223 89.6641 22.2 89.6641 17.186C89.6571 11.772 92.7791 8.45605 96.9951 8.45605ZM98.52 22.666C99.0982 22.6761 99.6706 22.5488 100.19 22.2947C100.709 22.0405 101.161 21.6667 101.508 21.204V12.004C101.153 11.5788 100.707 11.2388 100.203 11.0089C99.6991 10.7791 99.1499 10.6653 98.596 10.676C96.307 10.676 94.6121 12.802 94.6121 16.721C94.6121 20.64 96.296 22.666 98.52 22.666V22.666Z" fill="white"/>
<path d="M0 17.058C0 12.044 3.35402 8.39209 7.80002 8.39209C11.819 8.39209 14.538 10.9491 14.841 15.3801H4.75201V15.4801C4.75201 19.8951 6.94202 22.3181 9.83002 22.3181C10.74 22.3156 11.6366 22.098 12.4464 21.683C13.2563 21.268 13.9566 20.6673 14.49 19.9301L14.652 20.0301C14.2669 21.5615 13.3682 22.9145 12.1059 23.8632C10.8436 24.8119 9.29409 25.299 7.716 25.2431C3.354 25.2581 0 21.938 0 17.058ZM4.85001 13.972H9.76001C10.127 13.972 10.26 13.838 10.26 13.472C10.26 11.142 9.199 9.82007 7.767 9.82007C6.335 9.82007 5.14801 11.2811 4.85001 13.9711V13.972Z" fill="white"/>
<path d="M32.0293 17.058C32.0293 12.044 35.3833 8.39209 39.8293 8.39209C43.8473 8.39209 46.5673 10.9491 46.8693 15.3801H36.7833V15.4801C36.7833 19.8951 38.9733 22.3181 41.8613 22.3181C42.7712 22.3157 43.6676 22.0981 44.4774 21.6831C45.2871 21.2681 45.9871 20.6674 46.5203 19.9301L46.6833 20.0301C46.2982 21.5617 45.3993 22.9148 44.1368 23.8635C42.8743 24.8123 41.3246 25.2992 39.7463 25.2431C35.3843 25.2581 32.0293 21.938 32.0293 17.058ZM36.8803 13.972H41.7893C42.1563 13.972 42.2893 13.838 42.2893 13.472C42.2893 11.142 41.2293 9.82007 39.7973 9.82007C38.3653 9.82007 37.1793 11.2811 36.8813 13.9711L36.8803 13.972Z" fill="white"/>
<path d="M56.4922 17.058C56.4922 12.044 59.8462 8.39209 64.2922 8.39209C68.3112 8.39209 71.0302 10.9491 71.3332 15.3801H61.2432V15.4801C61.2432 19.8951 63.4332 22.3181 66.3212 22.3181C67.2311 22.3157 68.1275 22.0981 68.9372 21.6831C69.7469 21.2681 70.447 20.6674 70.9802 19.9301L71.1432 20.0301C70.7581 21.5615 69.8594 22.9145 68.5971 23.8632C67.3348 24.8119 65.7853 25.299 64.2072 25.2431C59.8452 25.2581 56.4922 21.938 56.4922 17.058ZM61.3422 13.972H66.2522C66.6192 13.972 66.7522 13.838 66.7522 13.472C66.7522 11.142 65.6912 9.82007 64.2592 9.82007C62.8272 9.82007 61.6392 11.2811 61.3412 13.9711L61.3422 13.972Z" fill="white"/>
<path d="M55.0566 23.499L56.4846 23.699V24.829H47.5566V23.699L49.0116 23.499C49.4426 23.43 49.5946 23.266 49.5946 22.799V3.93506C49.6337 3.7419 49.6016 3.54107 49.5042 3.36975C49.4068 3.19844 49.2506 3.06821 49.0646 3.00305L47.5736 2.24005V1.65802L54.5106 -0.00195312V22.772C54.4876 23.266 54.5876 23.429 55.0566 23.499Z" fill="white"/>
<path d="M16.0721 11.0829C15.7401 10.3829 15.6061 10.2829 15.0061 10.1509L14.2441 10.017V8.88696H23.1441V10.017L22.0841 10.1509C21.3501 10.2509 21.1841 10.5819 21.5011 11.4139L24.9551 19.9139C25.0551 20.1809 25.2871 20.1809 25.3861 19.9139L28.8051 11.65C29.1721 10.683 28.9391 10.25 27.9721 10.119L27.2441 10.019V8.88898H32.5551V10.019L32.1551 10.088C31.7974 10.1336 31.4612 10.2841 31.1888 10.5204C30.9163 10.7567 30.7199 11.0683 30.6241 11.416L24.7191 25.0259H22.0931L16.0721 11.0829Z" fill="white"/>
</g>
<defs>
<clipPath id="clip0">
<rect width="108.451" height="25.245" fill="white"/>
</clipPath>
</defs>
</svg>
