<svg width="129" height="29" viewBox="0 0 129 29" fill="none" xmlns="http://www.w3.org/2000/svg">
<g clip-path="url(#clip0)">
<path d="M30.8281 17.6271L34.1901 16.7081C34.2451 17.449 34.5909 18.1381 35.1521 18.625C35.8097 19.1705 36.649 19.4477 37.5021 19.401C38.1375 19.4371 38.7673 19.2651 39.2961 18.9111C39.4946 18.7794 39.6578 18.6013 39.7716 18.3921C39.8854 18.183 39.9464 17.9491 39.9491 17.711C39.9502 17.513 39.9075 17.3171 39.824 17.1375C39.7405 16.9579 39.6183 16.7989 39.4661 16.672C39.0525 16.3439 38.5582 16.1332 38.0351 16.0621L35.6251 15.521C34.3839 15.2926 33.2487 14.6723 32.3861 13.7511C31.6389 12.9154 31.234 11.8289 31.2521 10.7081C31.2512 10.0085 31.4067 9.3176 31.7073 8.68589C32.0078 8.05419 32.4458 7.49768 32.9891 7.05705C34.1656 6.03454 35.6829 5.4907 37.2411 5.53306C38.0322 5.52402 38.8203 5.6332 39.5791 5.85704C40.1894 6.02916 40.7676 6.2994 41.2911 6.65709C41.7231 6.96587 42.1063 7.33763 42.4281 7.76005C42.71 8.12244 42.9452 8.51889 43.1281 8.94004C43.2718 9.28787 43.3742 9.65136 43.4331 10.0231L40.2391 10.9421C40.2036 10.6783 40.1267 10.4218 40.0111 10.182C39.8796 9.90727 39.7114 9.65159 39.5111 9.42204C39.2609 9.1465 38.9486 8.93465 38.6001 8.80406C38.1691 8.63921 37.7104 8.55875 37.2491 8.56706C36.6415 8.54499 36.0459 8.73921 35.5681 9.11509C35.3631 9.26615 35.196 9.46268 35.0799 9.68931C34.9638 9.91594 34.9019 10.1664 34.8991 10.4211C34.8967 10.6223 34.9354 10.8219 35.013 11.0077C35.0906 11.1934 35.2053 11.3613 35.3501 11.5011C35.6822 11.8189 36.1032 12.0282 36.5571 12.1011L39.0161 12.607C40.2997 12.8173 41.4871 13.4187 42.4161 14.3291C43.1915 15.1333 43.6165 16.2121 43.5981 17.3291C43.5986 18.0022 43.4679 18.669 43.2131 19.292C42.9504 19.9361 42.5752 20.5284 42.1051 21.0411C41.5727 21.6073 40.92 22.0467 40.1951 22.3271C39.3524 22.6621 38.4519 22.8279 37.5451 22.815C36.5251 22.8312 35.5114 22.653 34.5581 22.2901C33.7716 22.0017 33.0605 21.5391 32.4781 20.9371C32.0118 20.4433 31.6212 19.8833 31.3191 19.2751C31.0605 18.7586 30.8944 18.2008 30.8281 17.6271V17.6271Z" fill="white"/>
<path d="M43.5957 9.44696V6.03699H44.4277C44.773 6.06203 45.1197 6.0119 45.4437 5.89001C45.7678 5.76813 46.0615 5.5774 46.3047 5.33099C46.7451 4.81571 46.9729 4.1521 46.9417 3.47498V1.01196H50.4497V6.03796H53.8277V9.448H50.4497V17.038C50.4238 17.3196 50.4547 17.6037 50.5406 17.8732C50.6265 18.1427 50.7656 18.3923 50.9497 18.607C51.391 18.9678 51.9559 19.1418 52.5237 19.092C52.973 19.093 53.4212 19.0491 53.8617 18.961V22.147C53.0961 22.4185 52.2852 22.5394 51.4737 22.503C50.8205 22.5391 50.1667 22.4433 49.5513 22.2214C48.9359 21.9994 48.3715 21.6558 47.8917 21.211C47.4417 20.7373 47.0934 20.1763 46.8685 19.5629C46.6435 18.9494 46.5466 18.2964 46.5837 17.644V9.44397L43.5957 9.44696Z" fill="white"/>
<path d="M54.7916 17.9409C54.7633 17.3163 54.8697 16.6929 55.1035 16.113C55.3373 15.5332 55.693 15.0103 56.1465 14.5799C57.1426 13.7003 58.3844 13.1471 59.7046 12.9949L63.8816 12.3569C64.6856 12.2555 65.0879 11.8889 65.0886 11.2569C65.0965 10.9381 65.0314 10.6218 64.8981 10.3321C64.7648 10.0424 64.5669 9.78716 64.3196 9.58589C63.6504 9.10587 62.8338 8.87654 62.0126 8.93794C61.1541 8.89321 60.312 9.18523 59.6656 9.7519C59.0818 10.2929 58.7223 11.0335 58.6586 11.8269L55.1326 11.0449C55.2061 10.288 55.4281 9.55309 55.7861 8.88215C56.144 8.21121 56.6308 7.61744 57.2186 7.1349C58.5471 6.03158 60.237 5.45885 61.9626 5.52693C63.0555 5.50533 64.1438 5.67453 65.1786 6.02693C66.011 6.30502 66.7636 6.78094 67.3716 7.41389C67.9024 7.98593 68.3107 8.66038 68.5716 9.39588C68.8358 10.1661 68.967 10.9757 68.9596 11.7899V19.6899C68.946 20.5647 69.0173 21.4389 69.1725 22.2999H65.5016C65.3434 21.621 65.2804 20.9233 65.3146 20.2269C64.8265 20.9842 64.1613 21.6113 63.3766 22.0539C62.4359 22.5787 61.3703 22.8383 60.2936 22.8049C58.8299 22.8693 57.3998 22.3549 56.3126 21.3729C55.8296 20.9419 55.4442 20.4127 55.1819 19.8209C54.9196 19.2291 54.7865 18.5882 54.7916 17.9409V17.9409ZM58.6586 17.6599C58.6535 17.9384 58.707 18.2148 58.8155 18.4713C58.9241 18.7278 59.0852 18.9586 59.2886 19.1489C59.5242 19.3607 59.7995 19.5237 60.0984 19.6286C60.3974 19.7335 60.7142 19.7781 61.0306 19.7599C61.5571 19.7659 62.0814 19.6917 62.5856 19.5399C63.0525 19.3942 63.4877 19.1618 63.8686 18.8549C64.281 18.5093 64.592 18.0583 64.7685 17.5499C64.9948 16.908 65.1029 16.2304 65.0876 15.5499V14.8159L60.8465 15.4619C60.2593 15.5381 59.7073 15.7846 59.2585 16.1709C59.0563 16.3606 58.8978 16.5921 58.7941 16.8493C58.6903 17.1064 58.6437 17.383 58.6576 17.6599H58.6586Z" fill="white"/>
<path d="M71.5664 22.306V6.03705H75.3054V8.06403C75.7687 7.25606 76.4714 6.61178 77.3164 6.22004C78.1839 5.78852 79.1395 5.56367 80.1084 5.56305C81.1426 5.54548 82.164 5.79409 83.0744 6.28504C83.9348 6.75435 84.6184 7.49174 85.0214 8.38508C85.5556 7.47609 86.33 6.73191 87.2595 6.23426C88.189 5.7366 89.2377 5.50467 90.2904 5.56403C91.0068 5.55925 91.7181 5.68357 92.3904 5.93104C93.0504 6.17958 93.6574 6.55077 94.1794 7.02503C94.7543 7.5642 95.1925 8.2327 95.4574 8.97504C95.7844 9.86271 95.9444 10.8032 95.9294 11.749V22.3071H92.2904V12.337C92.3347 11.4545 92.0567 10.586 91.5084 9.89307C91.2115 9.5743 90.8469 9.32626 90.4413 9.16736C90.0358 9.00847 89.5998 8.94275 89.1654 8.97504C88.7083 8.95951 88.2534 9.04471 87.8329 9.22461C87.4125 9.40452 87.0367 9.67473 86.7324 10.0161C86.1024 10.7262 85.7676 11.6502 85.7964 12.5991V22.3071H81.9294V12.337C81.9712 11.4589 81.6966 10.5949 81.1554 9.90204C80.8593 9.57935 80.4937 9.3282 80.0862 9.16761C79.6787 9.00701 79.2401 8.94117 78.8034 8.97504C78.3457 8.95586 77.8894 9.03698 77.4664 9.21265C77.0433 9.38832 76.6638 9.65434 76.3544 9.99207C75.7255 10.7114 75.3963 11.6444 75.4344 12.5991V22.3071L71.5664 22.306Z" fill="white"/>
<path d="M98.7227 28.656V6.03898H102.492V8.218C102.967 7.42592 103.662 6.78854 104.492 6.38298C105.47 5.8881 106.555 5.64121 107.652 5.66398C108.69 5.61377 109.726 5.80113 110.681 6.21183C111.636 6.62253 112.485 7.24574 113.163 8.03398C114.55 9.76198 115.262 11.935 115.168 14.149C115.256 16.3894 114.51 18.5828 113.073 20.304C112.387 21.0963 111.533 21.7243 110.572 22.1418C109.611 22.5593 108.569 22.7555 107.522 22.716C106.496 22.7356 105.479 22.5201 104.55 22.086C103.768 21.7325 103.091 21.181 102.588 20.486V28.656H98.7227ZM102.557 14.149C102.492 15.5018 102.927 16.8312 103.778 17.885C104.16 18.3437 104.642 18.7097 105.187 18.9556C105.731 19.2015 106.324 19.321 106.922 19.305C107.521 19.3226 108.116 19.2047 108.663 18.9602C109.21 18.7158 109.695 18.351 110.082 17.893C110.935 16.8375 111.37 15.5046 111.303 14.149C111.366 12.8148 110.934 11.5043 110.089 10.47C109.699 10.0142 109.213 9.65185 108.664 9.40953C108.116 9.1672 107.521 9.05117 106.922 9.06999C106.326 9.05313 105.735 9.17015 105.19 9.41246C104.646 9.65476 104.163 10.0161 103.778 10.47C102.93 11.5023 102.495 12.8126 102.559 14.147L102.557 14.149Z" fill="white"/>
<path d="M115.451 17.627L118.812 16.708C118.868 17.449 119.214 18.1379 119.775 18.625C120.433 19.1706 121.272 19.4477 122.125 19.401C122.761 19.4371 123.39 19.2651 123.919 18.911C124.118 18.7794 124.281 18.6013 124.395 18.3921C124.509 18.183 124.569 17.9491 124.572 17.711C124.573 17.5129 124.531 17.3171 124.447 17.1375C124.364 16.9578 124.241 16.7989 124.089 16.672C123.675 16.3437 123.181 16.133 122.657 16.062L120.247 15.521C119.006 15.2918 117.871 14.6716 117.008 13.7511C116.262 12.9151 115.857 11.8287 115.875 10.708C115.874 10.0085 116.03 9.31758 116.33 8.68588C116.631 8.05418 117.069 7.49766 117.612 7.05703C118.788 6.03467 120.305 5.49084 121.863 5.53305C122.655 5.52407 123.443 5.63325 124.202 5.85702C124.812 6.02911 125.391 6.29936 125.914 6.65707C126.345 6.96701 126.727 7.33978 127.047 7.76303C127.329 8.12542 127.564 8.52186 127.747 8.94302C127.892 9.29055 127.994 9.65414 128.052 10.026L124.858 10.945C124.823 10.6813 124.746 10.4248 124.63 10.185C124.498 9.91064 124.33 9.65512 124.13 9.42508C123.88 9.14931 123.567 8.93738 123.218 8.80703C122.787 8.64196 122.329 8.5615 121.867 8.57003C121.26 8.54794 120.665 8.74218 120.187 9.11807C119.982 9.26897 119.815 9.4655 119.699 9.69216C119.583 9.91883 119.521 10.1694 119.518 10.424C119.516 10.6253 119.554 10.825 119.632 11.0108C119.709 11.1965 119.824 11.3644 119.969 11.5041C120.301 11.8221 120.722 12.0313 121.176 12.104L123.634 12.6101C124.918 12.8203 126.105 13.4217 127.034 14.3321C127.809 15.1365 128.234 16.2151 128.216 17.3321C128.216 18.0052 128.085 18.6719 127.83 19.2951C127.567 19.939 127.192 20.5311 126.722 21.044C126.19 21.61 125.537 22.0495 124.812 22.33C123.969 22.665 123.068 22.8308 122.161 22.818C121.142 22.834 120.128 22.6559 119.175 22.2931C118.389 22.0049 117.677 21.5423 117.095 20.94C116.629 20.4466 116.238 19.8865 115.936 19.278C115.679 18.7603 115.515 18.2015 115.451 17.627V17.627Z" fill="white"/>
<path d="M1.85738 4.84821C1.87453 4.80398 1.88692 4.75803 1.89436 4.71118C2.01095 3.87648 2.43981 3.11708 3.09438 2.58618C3.55852 2.21568 4.11402 1.9773 4.70235 1.89618C4.74064 1.88959 4.77838 1.88021 4.81532 1.86816C4.93091 1.85582 5.0471 1.84981 5.16335 1.85016C5.96377 1.84539 6.73824 2.13376 7.34065 2.66083C7.94306 3.18789 8.33177 3.91722 8.43337 4.71118C8.44422 4.83707 8.50234 4.95416 8.59602 5.03894C8.68971 5.12372 8.81203 5.16994 8.93837 5.16821H9.05837C9.18471 5.16994 9.30702 5.12372 9.40071 5.03894C9.4944 4.95416 9.55252 4.83707 9.56337 4.71118C9.66033 3.91959 10.0443 3.19108 10.6426 2.66376C11.2409 2.13644 12.0118 1.84694 12.8093 1.85016C13.6098 1.84539 14.3842 2.13376 14.9866 2.66083C15.5891 3.18789 15.9778 3.91722 16.0794 4.71118C16.0902 4.83707 16.1483 4.95416 16.242 5.03894C16.3357 5.12372 16.458 5.16994 16.5844 5.16821H16.6843C16.8107 5.16994 16.933 5.12372 17.0267 5.03894C17.1204 4.95416 17.1785 4.83707 17.1893 4.71118C17.29 3.92116 17.6751 3.19487 18.2726 2.66827C18.8701 2.14167 19.6389 1.85082 20.4353 1.85016C21.2978 1.84953 22.1263 2.1866 22.7434 2.78918C23.3459 3.40625 23.683 4.23469 23.6823 5.09717C23.6817 5.89358 23.3908 6.66248 22.8642 7.25995C22.3376 7.85741 21.6114 8.24252 20.8214 8.3432C20.6955 8.35406 20.5783 8.41217 20.4935 8.50586C20.4088 8.59955 20.3626 8.72186 20.3643 8.84821V8.94818C20.3626 9.07452 20.4088 9.19684 20.4935 9.29053C20.5783 9.38422 20.6955 9.44233 20.8214 9.45319C21.6153 9.55478 22.3447 9.94343 22.8717 10.5458C23.3988 11.1482 23.6871 11.9228 23.6823 12.7232C23.6855 13.5207 23.3961 14.2917 22.8687 14.89C22.3414 15.4882 21.613 15.8722 20.8214 15.9692C20.6955 15.98 20.5783 16.0381 20.4935 16.1318C20.4088 16.2255 20.3626 16.3478 20.3643 16.4742V16.5942C20.3626 16.7205 20.4088 16.8428 20.4935 16.9365C20.5783 17.0302 20.6955 17.0883 20.8214 17.0992C21.6153 17.2008 22.3447 17.5895 22.8717 18.1919C23.3988 18.7943 23.6871 19.5688 23.6823 20.3692C23.6827 20.4754 23.6777 20.5815 23.6674 20.6872C23.6511 20.732 23.6386 20.7782 23.6303 20.8252C23.5142 21.6601 23.0853 22.4196 22.4304 22.9502C21.9659 23.3202 21.4105 23.5585 20.8223 23.6402C20.7836 23.6462 20.7455 23.6556 20.7083 23.6682C20.593 23.6801 20.4772 23.6861 20.3613 23.6862C19.5609 23.6909 18.7864 23.4026 18.184 22.8755C17.5816 22.3485 17.1929 21.6192 17.0913 20.8252C17.0805 20.6993 17.0224 20.5822 16.9287 20.4974C16.835 20.4126 16.7127 20.3664 16.5863 20.3682H16.4663C16.34 20.3664 16.2177 20.4126 16.124 20.4974C16.0303 20.5822 15.9722 20.6993 15.9613 20.8252C15.8644 21.6168 15.4804 22.3453 14.8821 22.8726C14.2838 23.3999 13.5128 23.6894 12.7153 23.6862C11.9148 23.6909 11.1402 23.4027 10.5376 22.8756C9.93504 22.3486 9.54618 21.6192 9.44435 20.8252C9.43356 20.7002 9.37615 20.5837 9.28352 20.4991C9.1909 20.4144 9.06984 20.3677 8.94435 20.3682H8.84438C8.71889 20.3677 8.59777 20.4144 8.50514 20.4991C8.41252 20.5837 8.35517 20.7002 8.34438 20.8252C8.24347 21.6153 7.85814 22.3416 7.26051 22.8682C6.66288 23.3947 5.89389 23.6855 5.09737 23.6862C4.23486 23.6874 3.40636 23.3499 2.79036 22.7462V22.7462C2.18702 22.1299 1.84951 21.3016 1.85036 20.4392C1.85124 19.6426 2.14227 18.8735 2.66902 18.2759C3.19577 17.6783 3.92215 17.2931 4.71236 17.1922C4.8372 17.1812 4.95335 17.1237 5.0378 17.0311C5.12225 16.9385 5.16884 16.8175 5.16835 16.6922V16.5922C5.16884 16.4668 5.12225 16.3459 5.0378 16.2533C4.95335 16.1607 4.8372 16.1032 4.71236 16.0922C3.91813 15.9906 3.18852 15.6018 2.66127 14.9992C2.13402 14.3966 1.8456 13.6219 1.85036 12.8212C1.84738 12.0236 2.13708 11.2526 2.66457 10.6544C3.19205 10.0561 3.92068 9.67213 4.71236 9.5752C4.83807 9.5641 4.95493 9.50589 5.03951 9.41223C5.12408 9.31857 5.1701 9.19637 5.16835 9.07019V8.9502C5.1701 8.82401 5.12408 8.70182 5.03951 8.60815C4.95493 8.51449 4.83807 8.45628 4.71236 8.44519C3.91813 8.34403 3.18846 7.95551 2.66115 7.35303C2.13384 6.75055 1.84541 5.9758 1.85036 5.17517C1.85036 5.06817 1.85635 4.96118 1.86635 4.85718L1.85738 4.84821ZM4.70638 0.835205C4.66615 0.824234 4.62491 0.817205 4.58333 0.814209C3.4887 0.966656 2.49199 1.52663 1.79237 2.3822C1.26412 3.01112 0.924356 3.77655 0.812333 4.59021C0.814228 4.62565 0.819578 4.6608 0.828324 4.69519C0.815324 4.83419 0.807328 4.97519 0.807328 5.11719C0.813354 5.90016 1.0282 6.66732 1.4297 7.33954C1.8312 8.01175 2.40481 8.56464 3.09132 8.94116C2.40481 9.31769 1.8312 9.87063 1.4297 10.5428C1.0282 11.2151 0.813354 11.9822 0.807328 12.7652C0.813531 13.548 1.02846 14.315 1.42995 14.987C1.83144 15.659 2.40496 16.2118 3.09132 16.5882C2.40112 16.9603 1.82447 17.5122 1.42238 18.1854C1.02029 18.8586 0.80774 19.628 0.807328 20.4122C0.807328 20.5342 0.807366 20.6542 0.821366 20.7732C0.808229 20.8285 0.803842 20.8855 0.808365 20.9422C0.935677 21.8979 1.3755 22.7846 2.05934 23.4642C2.73895 24.148 3.62571 24.5879 4.58138 24.7152C4.63837 24.7197 4.69571 24.7153 4.75136 24.7022C4.87036 24.7122 4.99034 24.7172 5.11134 24.7172C5.89548 24.7168 6.66489 24.5043 7.33809 24.1022C8.01129 23.7001 8.56318 23.1234 8.93532 22.4332C9.31176 23.1195 9.86455 23.6931 10.5366 24.0945C11.2086 24.496 11.9755 24.711 12.7583 24.7172C13.5413 24.7111 14.3085 24.4963 14.9807 24.0948C15.6529 23.6933 16.2058 23.1197 16.5824 22.4332C16.9588 23.1195 17.5115 23.6931 18.1835 24.0945C18.8556 24.496 19.6226 24.711 20.4053 24.7172C20.5433 24.7172 20.6804 24.7102 20.8164 24.6982C20.8566 24.7089 20.8978 24.7156 20.9393 24.7182C22.0336 24.5661 23.03 24.0064 23.7293 23.1512C24.2581 22.5221 24.5982 21.7563 24.7103 20.9422C24.7075 20.9069 24.7021 20.8717 24.6944 20.8372C24.7084 20.6982 24.7144 20.5572 24.7144 20.4152C24.7083 19.6322 24.4935 18.865 24.092 18.1928C23.6905 17.5206 23.1169 16.9677 22.4304 16.5912C23.1167 16.2147 23.6902 15.662 24.0917 14.99C24.4932 14.318 24.7082 13.551 24.7144 12.7682C24.7082 11.9854 24.4932 11.2184 24.0917 10.5464C23.6902 9.87436 23.1167 9.32163 22.4304 8.94519C23.1208 8.57356 23.6977 8.02192 24.0998 7.34882C24.5019 6.67571 24.7143 5.90627 24.7144 5.12219C24.7144 5.00019 24.7144 4.88017 24.6994 4.76117C24.7123 4.7055 24.717 4.64823 24.7133 4.59119C24.5858 3.63587 24.146 2.74954 23.4624 2.07019C22.7828 1.38604 21.8961 0.945835 20.9403 0.818176C20.8833 0.814112 20.8261 0.818493 20.7703 0.831177C20.6513 0.821177 20.5303 0.816162 20.4093 0.816162C19.6252 0.816216 18.8559 1.02859 18.1828 1.43073C17.5097 1.83286 16.958 2.40975 16.5863 3.10016C16.2098 2.41364 15.6569 1.84004 14.9847 1.43854C14.3125 1.03704 13.5453 0.822188 12.7623 0.816162C11.9795 0.822365 11.2126 1.03729 10.5405 1.43878C9.86852 1.84027 9.31579 2.41379 8.93935 3.10016C8.56291 2.41379 8.01017 1.84027 7.33815 1.43878C6.66613 1.03729 5.89915 0.822365 5.11635 0.816162C4.97835 0.816162 4.84134 0.822205 4.70534 0.835205H4.70638Z" fill="white"/>
<path d="M20.9638 25.5311L20.8778 25.524L20.7719 25.5121C20.6509 25.5211 20.5278 25.5251 20.4078 25.5251C19.4658 25.5238 18.5425 25.2622 17.7398 24.7691C17.3127 24.5075 16.9249 24.1866 16.5878 23.8161C16.1027 24.3499 15.5121 24.7772 14.8534 25.0712C14.1947 25.3652 13.4822 25.5194 12.7609 25.524C11.8192 25.5226 10.8962 25.261 10.0938 24.7681C9.66787 24.5068 9.28078 24.187 8.94385 23.8181C8.61023 24.1877 8.22531 24.5077 7.80084 24.7681C6.99226 25.2627 6.06269 25.5243 5.11481 25.524C5.00781 25.524 4.89981 25.5241 4.79181 25.5141C4.70221 25.5248 4.61183 25.5268 4.52185 25.5201H4.49884H4.47583C3.90625 25.4452 3.35303 25.2762 2.83881 25.0201C2.33917 24.7697 1.88356 24.4397 1.48981 24.0431C1.09318 23.6493 0.76322 23.1937 0.512817 22.6941C0.256974 22.1797 0.0880245 21.6266 0.0128174 21.0571V21.0341V21.011C0.00611171 20.9211 0.00816354 20.8307 0.0188599 20.7411C0.0118599 20.6341 0.0088501 20.5251 0.0088501 20.4181C0.00843434 19.4705 0.270059 18.5413 0.764832 17.7331C1.02498 17.3079 1.34529 16.9225 1.71582 16.5891C1.34632 16.2523 1.02617 15.8652 0.764832 15.4391C0.271762 14.6368 0.0101413 13.7138 0.0088501 12.7721C0.0135055 12.0508 0.167687 11.3382 0.46167 10.6795C0.755653 10.0208 1.18306 9.43023 1.71686 8.94507C1.34666 8.60773 1.02584 8.21994 0.763855 7.79309C0.2708 6.99042 0.00912728 6.06707 0.0078125 5.12506C0.0078125 4.99706 0.00782715 4.8671 0.0228271 4.7381C0.0228271 4.7121 0.0168315 4.68707 0.0148315 4.66107L0.0078125 4.57507L0.0198364 4.48907C0.151924 3.52509 0.554055 2.61813 1.17981 1.87305C2.00633 0.860796 3.18532 0.198835 4.47986 0.0200806L4.56482 0.00805664L4.65082 0.0150757C4.68682 0.0150757 4.72284 0.0220762 4.75684 0.0280762C4.87884 0.0190762 4.99983 0.0150757 5.12183 0.0150757C6.0639 0.0168989 6.9872 0.278881 7.78986 0.772095C8.21654 1.0335 8.60405 1.35398 8.94086 1.72406C9.42606 1.19031 10.0167 0.762974 10.6754 0.468994C11.3341 0.175015 12.0465 0.0207682 12.7678 0.0160522C13.7099 0.0178755 14.6332 0.279857 15.4359 0.773071C15.8619 1.03374 16.2487 1.35362 16.5848 1.72308C16.9183 1.35282 17.3036 1.03282 17.7288 0.773071C18.537 0.278284 19.4662 0.0163011 20.4138 0.0160522C20.5218 0.0160522 20.6299 0.016062 20.7379 0.026062C20.8274 0.0153281 20.9178 0.0133372 21.0078 0.0200806H21.0308H21.0529C21.6224 0.0951794 22.1755 0.264134 22.6898 0.520081C23.1898 0.770452 23.6458 1.10041 24.0399 1.49707C24.4365 1.89116 24.7665 2.34708 25.0168 2.84705C25.2728 3.36135 25.4417 3.91453 25.5168 4.48407V4.5061V4.52905C25.5236 4.61903 25.5216 4.70948 25.5109 4.79907C25.5169 4.90607 25.5208 5.01405 25.5208 5.12305C25.5206 6.07069 25.2587 6.99992 24.7639 7.80811C24.5041 8.23334 24.1841 8.61866 23.8138 8.95209C24.1833 9.28814 24.5032 9.675 24.7639 10.1011C25.2573 10.9036 25.5192 11.827 25.5208 12.7691C25.5161 13.4904 25.3619 14.2029 25.0679 14.8616C24.774 15.5203 24.3466 16.1109 23.8128 16.5961C24.1829 16.9329 24.5034 17.3204 24.7648 17.7471C25.2581 18.5497 25.5201 19.473 25.5219 20.4151C25.5219 20.5441 25.5218 20.6741 25.5068 20.8031C25.5068 20.8291 25.5128 20.8551 25.5148 20.8811L25.5219 20.9671L25.5098 21.0521C25.3772 22.0157 24.9755 22.9225 24.3508 23.6681C23.5247 24.6808 22.3456 25.3429 21.0508 25.5211L20.9638 25.5311ZM17.8918 20.7311C17.9696 21.3285 18.2635 21.8768 18.7181 22.2722C19.1727 22.6676 19.7564 22.8828 20.3588 22.8771C20.4238 22.8771 20.4888 22.8771 20.5588 22.8691C20.6018 22.8581 20.6469 22.8491 20.6909 22.8421H20.7148C21.1573 22.7803 21.5751 22.6011 21.9248 22.3231C22.4191 21.9242 22.743 21.3521 22.8308 20.7231V20.7001C22.8402 20.6451 22.8526 20.5907 22.8679 20.537C22.8679 20.484 22.8679 20.4311 22.8679 20.3781C22.8734 19.7756 22.6579 19.1921 22.2623 18.7377C21.8667 18.2833 21.3183 17.9895 20.7208 17.912C20.398 17.8781 20.0994 17.7253 19.8829 17.4833C19.6665 17.2414 19.5478 16.9277 19.5498 16.6031V16.4831C19.5471 16.1655 19.6608 15.858 19.8694 15.6185C20.0779 15.379 20.3669 15.2241 20.6818 15.1831H20.7058H20.7299C21.3224 15.1061 21.8664 14.8155 22.2598 14.3659C22.6533 13.9163 22.8691 13.3386 22.8668 12.7411C22.8723 12.1386 22.6569 11.555 22.2613 11.1006C21.8657 10.6463 21.3173 10.3526 20.7198 10.2751C20.3971 10.2409 20.0986 10.088 19.8822 9.84613C19.6658 9.60425 19.547 9.2906 19.5488 8.96606V8.86609C19.5462 8.54853 19.6599 8.24096 19.8684 8.00146C20.077 7.76197 20.3659 7.60713 20.6808 7.5661H20.7048H20.7288C21.3186 7.48333 21.859 7.19117 22.2513 6.74304C22.6437 6.29491 22.8618 5.72065 22.8658 5.12506C22.8682 4.47717 22.617 3.85411 22.1658 3.3891C21.7008 2.93796 21.0777 2.6867 20.4298 2.68909C19.8324 2.6866 19.2547 2.90238 18.8052 3.2959C18.3557 3.68942 18.0654 4.23355 17.9888 4.82605V4.8501V4.87408C17.948 5.18917 17.7932 5.47838 17.5537 5.68713C17.3142 5.89588 17.0066 6.00971 16.6888 6.00708H16.5888C16.2642 6.00911 15.9505 5.89037 15.7086 5.67395C15.4666 5.45753 15.3138 5.15887 15.2798 4.83606C15.2024 4.23859 14.9087 3.69023 14.4543 3.29462C13.9999 2.89901 13.4163 2.68359 12.8138 2.68909C12.2164 2.68679 11.6386 2.90262 11.189 3.29608C10.7393 3.68955 10.4488 4.23356 10.3718 4.82605V4.8501V4.87408C10.331 5.18917 10.1762 5.47838 9.93671 5.68713C9.69719 5.89588 9.38955 6.00971 9.07184 6.00708H8.95184C8.62725 6.00911 8.31346 5.89037 8.07153 5.67395C7.82961 5.45753 7.67681 5.15887 7.64282 4.83606C7.56534 4.23859 7.27165 3.69023 6.81726 3.29462C6.36287 2.89901 5.77927 2.68359 5.17682 2.68909C5.11082 2.68909 5.04581 2.68908 4.97681 2.69708C4.93381 2.70908 4.88885 2.7171 4.84485 2.7251H4.82184C4.37895 2.78642 3.96069 2.96566 3.61084 3.24408C3.11656 3.64296 2.79262 4.215 2.70483 4.84406V4.8681C2.6958 4.92272 2.68377 4.97679 2.66882 5.03009C2.66882 5.08309 2.66882 5.13609 2.66882 5.18909C2.66305 5.79156 2.87825 6.37526 3.27368 6.82983C3.66911 7.28441 4.21736 7.57834 4.81482 7.65607C5.13764 7.68981 5.43641 7.84237 5.65302 8.08411C5.86962 8.32584 5.98858 8.63947 5.98682 8.96405V9.08411C5.98945 9.40181 5.87568 9.70946 5.66693 9.94897C5.45818 10.1885 5.16891 10.3433 4.85382 10.3841H4.83081H4.80682C4.21424 10.4604 3.66999 10.7506 3.27643 11.2002C2.88287 11.6497 2.66716 12.2276 2.66986 12.8251C2.66409 13.4275 2.87923 14.0112 3.27466 14.4658C3.67009 14.9204 4.21839 15.2143 4.81586 15.2921C5.13868 15.3258 5.43739 15.4784 5.65399 15.7202C5.87059 15.9619 5.98961 16.2755 5.98785 16.6001V16.7001C5.99049 17.0178 5.87666 17.3255 5.66791 17.565C5.45916 17.8045 5.16995 17.9593 4.85486 18.0001H4.83185H4.80786C4.21796 18.0831 3.67752 18.3754 3.28522 18.8237C2.89291 19.272 2.67486 19.8464 2.67084 20.4421C2.6685 21.0897 2.91977 21.7124 3.37085 22.1771C3.8355 22.6281 4.45825 22.8794 5.10583 22.8771C5.70153 22.873 6.27595 22.655 6.72424 22.2627C7.17254 21.8704 7.46485 21.33 7.54785 20.7401V20.7171V20.6931C7.58866 20.378 7.74339 20.0888 7.98291 19.88C8.22243 19.6713 8.53013 19.5574 8.84784 19.5601H8.94781C9.27239 19.5583 9.58602 19.6773 9.82776 19.8939C10.0695 20.1105 10.2221 20.4092 10.2559 20.7321C10.3336 21.3295 10.6275 21.8778 11.0821 22.2733C11.5367 22.6687 12.1204 22.8838 12.7228 22.8781C13.3203 22.8808 13.8982 22.665 14.3477 22.2715C14.7973 21.8779 15.0875 21.3337 15.1638 20.7411V20.7181V20.6941C15.2046 20.379 15.3594 20.0897 15.5989 19.881C15.8385 19.6722 16.1461 19.5585 16.4638 19.5611H16.5839C16.9077 19.5589 17.2208 19.6769 17.4626 19.8923C17.7044 20.1077 17.8577 20.4051 17.8928 20.7271L17.8918 20.7311Z" fill="white"/>
<path d="M12.7735 15.933C12.1872 15.9346 11.6064 15.8199 11.0647 15.5956C10.5229 15.3712 10.0311 15.0417 9.61757 14.626C9.20183 14.2123 8.87225 13.7203 8.64791 13.1784C8.42356 12.6365 8.30891 12.0555 8.31056 11.469C8.31083 11.2065 8.41518 10.9548 8.60079 10.7692C8.78639 10.5836 9.03807 10.4793 9.30055 10.479C9.56321 10.479 9.81511 10.5833 10.0009 10.7689C10.1868 10.9546 10.2913 11.2063 10.2915 11.469C10.2921 12.1269 10.5536 12.7578 11.0188 13.2231C11.4839 13.6884 12.1146 13.9502 12.7725 13.951C13.4306 13.9502 14.0614 13.6884 14.5267 13.2231C14.992 12.7579 15.2537 12.127 15.2545 11.469C15.2548 11.2065 15.3592 10.9548 15.5448 10.7692C15.7304 10.5836 15.982 10.4793 16.2445 10.479C16.5072 10.479 16.7591 10.5833 16.945 10.7689C17.1308 10.9546 17.2353 11.2063 17.2356 11.469C17.2372 12.0555 17.1226 12.6365 16.8982 13.1784C16.6739 13.7203 16.3443 14.2123 15.9285 14.626C15.5151 15.0414 15.0234 15.3708 14.4818 15.5952C13.9403 15.8195 13.3597 15.9343 12.7735 15.933V15.933Z" fill="white"/>
</g>
<defs>
<clipPath id="clip0">
<rect width="128.212" height="28.653" fill="white"/>
</clipPath>
</defs>
</svg>
