<svg width="122" height="26" viewBox="0 0 122 26" fill="none" xmlns="http://www.w3.org/2000/svg">
<g clip-path="url(#clip0)">
<path d="M5.54099 9.55707L4.36398 5.22107L0 6.37012L1.177 10.7341L5.54099 9.55707ZM5.54099 15.9311L1.177 14.7541L0 19.1181L4.36398 20.2671L5.54099 15.9311ZM11.054 19.1181L7.867 22.3051L11.054 25.4921L14.242 22.3051L11.054 19.1181ZM16.567 15.9311L17.744 20.2951L22.108 19.1181L20.931 14.7541L16.567 15.9311ZM16.567 9.55707L20.931 10.7341L22.108 6.37012L17.744 5.22107L16.567 9.55707ZM11.054 6.36908L14.242 3.18311L11.054 -0.00488281L7.867 3.18311L11.054 6.36908Z" fill="white"/>
<path d="M41.3636 22.1072L39.7505 17.2151H32.7846L31.1716 22.1072H27.6846L34.3996 3.18115H38.2166L44.9326 22.1072H41.3636ZM36.2216 6.52515L33.5726 14.6052H38.9506L36.3136 6.52515H36.2216Z" fill="white"/>
<path d="M50.8462 22.3311C50.0428 22.3596 49.244 22.1987 48.5144 21.8613C47.7847 21.524 47.1447 21.0196 46.6462 20.389C45.5313 18.8749 44.977 17.0205 45.0781 15.143C44.9784 13.2693 45.5326 11.4192 46.6462 9.90906C47.145 9.27879 47.785 8.77468 48.5146 8.4375C49.2442 8.10032 50.0429 7.93947 50.8462 7.96802C51.7613 7.95328 52.6621 8.19584 53.4462 8.66803C54.1853 9.11216 54.7768 9.7648 55.1462 10.544H55.2252V3.18604H58.4912V22.1121H55.2912V19.738H55.2392C54.8606 20.5294 54.2557 21.1906 53.5012 21.6381C52.6975 22.1108 51.7783 22.3507 50.8462 22.3311V22.3311ZM51.8302 10.657C51.3473 10.6404 50.8678 10.7423 50.4334 10.9537C49.999 11.1652 49.6229 11.4798 49.3382 11.8701C48.6798 12.835 48.3573 13.9896 48.4202 15.156C48.3555 16.3236 48.6759 17.4802 49.3321 18.4481C49.6184 18.8383 49.996 19.1524 50.4319 19.3628C50.8677 19.5732 51.3485 19.6736 51.8321 19.655C52.3134 19.6683 52.7906 19.5641 53.2225 19.3516C53.6544 19.139 54.0281 18.8244 54.3112 18.4351C54.9761 17.4754 55.3036 16.322 55.2422 15.156C55.3016 13.9922 54.9742 12.8414 54.3112 11.8831C54.0288 11.492 53.6552 11.1758 53.2228 10.9621C52.7904 10.7484 52.3123 10.6437 51.8302 10.657V10.657Z" fill="white"/>
<path d="M72.9356 8.2041L68.0426 22.1041H64.4486L59.5176 8.2041H63.0066L66.2326 19.0781H66.2986L69.5246 8.2041H72.9356Z" fill="white"/>
<path d="M82.7076 17.9501H85.7636C85.6659 18.5934 85.4374 19.2099 85.0922 19.7615C84.747 20.313 84.2925 20.788 83.7566 21.1571C82.5426 22.0006 81.0892 22.4305 79.6116 22.3832C78.7051 22.4308 77.7988 22.2839 76.9536 21.9524C76.1085 21.6209 75.344 21.1125 74.7116 20.4612C73.4599 19.0068 72.8204 17.124 72.9276 15.2081C72.8321 13.2808 73.4666 11.3883 74.7046 9.90812C75.3058 9.24457 76.046 8.72184 76.8724 8.37717C77.6988 8.03251 78.5911 7.87436 79.4856 7.9141C80.3572 7.8732 81.2272 8.02192 82.0357 8.34995C82.8442 8.67798 83.572 9.17753 84.1686 9.81412C85.3737 11.2196 85.9933 13.0341 85.8996 14.8832V15.9461H76.1806V16.1462C76.1342 17.1356 76.4753 18.1042 77.1316 18.8461C77.4588 19.1894 77.8559 19.4585 78.296 19.6351C78.736 19.8118 79.2089 19.8919 79.6826 19.8702C80.3682 19.8879 81.0444 19.7081 81.6306 19.3521C82.1519 19.0354 82.536 18.5354 82.7076 17.9501ZM79.4936 10.4501C79.0699 10.4395 78.6486 10.5175 78.2567 10.679C77.8647 10.8405 77.5108 11.082 77.2176 11.3882C76.5979 12.0405 76.2368 12.8961 76.2016 13.7951H82.6936C82.6962 12.9024 82.364 12.041 81.7626 11.3811C81.4723 11.0734 81.1198 10.831 80.7286 10.67C80.3374 10.5089 79.9164 10.4329 79.4936 10.4471V10.4501Z" fill="white"/>
<path d="M87.457 22.1071V8.20708H90.591V10.6341H90.657C90.8443 9.86367 91.2741 9.17377 91.883 8.66606C92.482 8.19511 93.2263 7.94757 93.988 7.96605C94.3327 7.97308 94.6757 8.01704 95.011 8.09709V11.0481C94.5837 10.9105 94.1356 10.8486 93.687 10.8651C93.2853 10.8429 92.8834 10.9061 92.508 11.0508C92.1325 11.1954 91.792 11.4181 91.509 11.7041C90.9568 12.3423 90.6749 13.1705 90.723 14.0131V22.1051L87.457 22.1071Z" fill="white"/>
<path d="M108.485 8.2041V22.1041H105.337V19.6911H105.272C104.939 20.5296 104.347 21.24 103.583 21.7188C102.819 22.1976 101.921 22.4198 101.022 22.3531C100.358 22.3861 99.6954 22.2802 99.0755 22.042C98.4555 21.8038 97.8922 21.4387 97.4216 20.9701C96.9611 20.4587 96.6059 19.8616 96.3765 19.2128C96.1471 18.564 96.0479 17.8763 96.0846 17.1891V8.2041H99.3506V16.5331C99.2934 17.3566 99.5487 18.1714 100.066 18.8151C100.337 19.089 100.665 19.3012 101.026 19.437C101.387 19.5728 101.773 19.6292 102.158 19.6021C102.574 19.6213 102.989 19.5491 103.374 19.3905C103.76 19.2319 104.106 18.9907 104.388 18.6841C104.962 18.005 105.257 17.1334 105.214 16.2451V8.2041H108.485Z" fill="white"/>
<path d="M110.358 12.1912C110.344 11.5876 110.478 10.9896 110.748 10.4494C111.017 9.90919 111.415 9.44293 111.906 9.0912C113.097 8.25547 114.532 7.83999 115.985 7.91023C117.406 7.84627 118.806 8.26967 119.953 9.11024C120.44 9.47504 120.837 9.94674 121.113 10.489C121.389 11.0313 121.537 11.6297 121.546 12.2382H118.503C118.488 11.9608 118.412 11.6901 118.281 11.4453C118.15 11.2006 117.966 10.9878 117.743 10.8222C117.207 10.4566 116.566 10.2768 115.919 10.3103C115.307 10.2807 114.702 10.4436 114.188 10.7762C113.984 10.9083 113.816 11.0902 113.702 11.3046C113.587 11.519 113.529 11.759 113.532 12.0022C113.532 12.7709 114.197 13.3172 115.526 13.6412L118.005 14.1922C119.102 14.3749 120.13 14.846 120.985 15.5572C121.292 15.8792 121.529 16.2608 121.683 16.6782C121.836 17.0957 121.902 17.5402 121.877 17.9842C121.887 18.6098 121.742 19.2281 121.453 19.7833C121.165 20.3385 120.743 20.8131 120.225 21.1642C118.963 22.0208 117.459 22.4466 115.936 22.3782C114.451 22.4509 112.983 22.0339 111.758 21.1912C111.25 20.8227 110.829 20.3465 110.527 19.7966C110.224 19.2467 110.046 18.6367 110.007 18.0102H113.22C113.254 18.3026 113.35 18.5845 113.5 18.8375C113.651 19.0906 113.852 19.3092 114.093 19.4792C114.678 19.8481 115.363 20.027 116.054 19.9912C116.712 20.0261 117.366 19.8687 117.936 19.5382C118.149 19.4128 118.324 19.2333 118.445 19.018C118.566 18.8027 118.628 18.5592 118.625 18.3122C118.632 18.1296 118.597 17.9479 118.523 17.7808C118.449 17.6138 118.338 17.4658 118.198 17.3482C117.768 17.0416 117.279 16.8293 116.762 16.7252L114.231 16.1352C111.649 15.5345 110.358 14.2199 110.358 12.1912Z" fill="white"/>
</g>
<defs>
<clipPath id="clip0">
<rect width="121.874" height="25.497" fill="white"/>
</clipPath>
</defs>
</svg>
