<svg width="124" height="27" viewBox="0 0 124 27" fill="none" xmlns="http://www.w3.org/2000/svg">
<g clip-path="url(#clip0)">
<path d="M9.46167 26.67C9.26358 26.6784 9.06605 26.6436 8.88269 26.5682C8.69934 26.4927 8.53451 26.3784 8.39966 26.233C8.11 25.9566 7.94194 25.5764 7.93238 25.1761C7.92281 24.7758 8.07256 24.388 8.3487 24.098L8.39966 24.0471L23.8897 8.55701C24.1826 8.27033 24.5774 8.11166 24.9872 8.11578C25.3971 8.11991 25.7886 8.28653 26.0757 8.57904C26.3588 8.86801 26.5174 9.25644 26.5174 9.66101C26.5174 10.0656 26.3588 10.4541 26.0757 10.743L10.5237 26.23C10.3891 26.3759 10.2244 26.4909 10.0411 26.5668C9.85771 26.6428 9.66 26.678 9.46167 26.67V26.67ZM17.2067 26.67C16.897 26.6751 16.5928 26.5881 16.3327 26.42L16.2697 26.358C15.9339 26.1283 15.7032 25.7747 15.6282 25.3749C15.5532 24.9751 15.6401 24.5618 15.8697 24.226C16.0938 23.8985 16.4364 23.6708 16.8251 23.5908C17.2138 23.5107 17.6184 23.5847 17.9537 23.7971L18.0167 23.859C18.345 24.0919 18.5727 24.4407 18.6538 24.8349C18.7349 25.2291 18.6634 25.6395 18.4537 25.983C18.3232 26.1958 18.1396 26.371 17.921 26.4914C17.7024 26.6118 17.4562 26.6734 17.2067 26.67V26.67ZM4.71466 23.7971C4.51672 23.8054 4.31937 23.7706 4.13617 23.6951C3.95298 23.6197 3.78835 23.5054 3.65369 23.36C3.51008 23.2233 3.3948 23.0595 3.31446 22.8782C3.23412 22.6969 3.19026 22.5015 3.18543 22.3033C3.1806 22.105 3.2149 21.9078 3.28632 21.7228C3.35774 21.5378 3.4649 21.3686 3.60169 21.225C3.61869 21.208 3.63569 21.19 3.65369 21.174L7.9007 16.926C8.19365 16.6392 8.58848 16.4806 8.99842 16.4849C9.40836 16.4892 9.79982 16.6561 10.0867 16.949C10.3698 17.238 10.5284 17.6264 10.5284 18.031C10.5284 18.4356 10.3698 18.8241 10.0867 19.113L5.83966 23.36C5.5147 23.6112 5.12398 23.763 4.71466 23.7971ZM22.8277 21.049C22.6295 21.0574 22.4319 21.0225 22.2485 20.9469C22.0651 20.8713 21.9004 20.7567 21.7657 20.611C21.4761 20.3347 21.308 19.9547 21.2985 19.5546C21.2889 19.1544 21.4386 18.7669 21.7147 18.4771L21.7657 18.425L23.8897 16.302C24.0346 16.1598 24.2061 16.0476 24.3945 15.9717C24.5828 15.8959 24.7842 15.8579 24.9872 15.86C25.1903 15.862 25.3909 15.904 25.5776 15.9836C25.7644 16.0633 25.9337 16.179 26.0757 16.324C26.3588 16.613 26.5174 17.0014 26.5174 17.406C26.5174 17.8106 26.3588 18.1991 26.0757 18.488L23.9517 20.611C23.6427 20.8888 23.2432 21.0445 22.8277 21.049ZM1.71766 19.113C1.51949 19.1212 1.32196 19.0862 1.13862 19.0106C0.955265 18.935 0.790507 18.8205 0.655705 18.675C0.512121 18.5384 0.396857 18.3747 0.316533 18.1935C0.236208 18.0123 0.192394 17.8169 0.187565 17.6188C0.182736 17.4206 0.216993 17.2234 0.288395 17.0385C0.359798 16.8536 0.466947 16.6845 0.603703 16.541C0.620703 16.523 0.637705 16.506 0.655705 16.489C0.792449 16.3455 0.956128 16.2303 1.13739 16.1501C1.31866 16.0698 1.51393 16.0262 1.7121 16.0214C1.91028 16.0167 2.10747 16.051 2.29236 16.1225C2.47726 16.194 2.64623 16.3012 2.78968 16.438C2.80768 16.454 2.82468 16.472 2.84168 16.489C2.98523 16.6258 3.10042 16.7896 3.18067 16.9709C3.26092 17.1523 3.30466 17.3477 3.30939 17.546C3.31413 17.7442 3.27976 17.9415 3.20826 18.1265C3.13676 18.3114 3.02955 18.4805 2.8927 18.624L2.84168 18.675C2.5173 18.9268 2.12682 19.0789 1.71766 19.113ZM13.0847 15.3651C12.8866 15.3734 12.689 15.3386 12.5057 15.2632C12.3223 15.1877 12.1575 15.0734 12.0226 14.928C11.8791 14.7914 11.7639 14.6277 11.6835 14.4465C11.6032 14.2652 11.5594 14.07 11.5546 13.8718C11.5497 13.6737 11.584 13.4764 11.6554 13.2915C11.7268 13.1066 11.834 12.9375 11.9707 12.794C11.9877 12.776 12.0046 12.759 12.0226 12.742L20.8917 3.87305C21.0366 3.73086 21.2082 3.61864 21.3965 3.54279C21.5848 3.46693 21.7862 3.42893 21.9893 3.43097C22.1923 3.43301 22.3929 3.47506 22.5797 3.55469C22.7664 3.63432 22.9357 3.74994 23.0777 3.89502C23.3609 4.18399 23.5194 4.57248 23.5194 4.97705C23.5194 5.38162 23.3609 5.77005 23.0777 6.05902L14.2087 14.928C14.0616 15.0744 13.8857 15.1888 13.6923 15.264C13.4989 15.3392 13.292 15.3736 13.0847 15.3651V15.3651ZM5.90168 14.928C5.70358 14.9364 5.50605 14.9016 5.3227 14.8262C5.13934 14.7507 4.97452 14.6364 4.83966 14.491C4.55 14.2146 4.38194 13.8344 4.37238 13.4341C4.36282 13.0338 4.51257 12.646 4.7887 12.356L4.83966 12.3051L16.2077 0.812012C16.484 0.522409 16.8639 0.354351 17.2641 0.344788C17.6643 0.335225 18.0519 0.484974 18.3417 0.761048C18.3597 0.777048 18.3767 0.795012 18.3937 0.812012C18.5372 0.948842 18.6524 1.11266 18.7327 1.29401C18.8129 1.47536 18.8567 1.6707 18.8614 1.86896C18.8661 2.06721 18.8318 2.26449 18.7603 2.44946C18.6888 2.63444 18.5816 2.80349 18.4447 2.94702L18.3937 2.99805L6.96369 14.491C6.66808 14.7509 6.29453 14.9054 5.90168 14.9301V14.928ZM1.52967 11.618C1.3315 11.6262 1.13392 11.5912 0.950566 11.5156C0.767216 11.44 0.602458 11.3255 0.467656 11.1801C0.178052 10.9037 0.00999462 10.5237 0.000431439 10.1236C-0.00913175 9.72344 0.140618 9.33584 0.416691 9.04602C0.432691 9.02802 0.450656 9.01102 0.467656 8.99402L4.96766 4.56006C5.11258 4.41787 5.28415 4.30559 5.47248 4.22974C5.6608 4.15388 5.86223 4.11594 6.06525 4.11798C6.26827 4.12002 6.46888 4.16201 6.65564 4.24164C6.84241 4.32127 7.01166 4.43696 7.15369 4.58203C7.43684 4.87101 7.5954 5.25943 7.5954 5.664C7.5954 6.06857 7.43684 6.45706 7.15369 6.74603L2.65369 11.1801C2.3294 11.4319 1.93887 11.5841 1.52967 11.618V11.618ZM9.83667 3.31104C9.42655 3.31477 9.03174 3.15551 8.73902 2.86823C8.4463 2.58094 8.27966 2.18917 8.2757 1.77905C8.27466 1.76908 8.27466 1.759 8.2757 1.74902V1.56201C8.27544 1.35698 8.31558 1.15392 8.39386 0.964417C8.47214 0.774918 8.58699 0.602713 8.73188 0.457642C8.87676 0.312571 9.04883 0.19748 9.23822 0.118958C9.42762 0.0404355 9.63067 1.51821e-07 9.8357 3.2032e-07C10.0407 -0.000131044 10.2437 0.0401433 10.4331 0.11847C10.6225 0.196796 10.7947 0.311684 10.9398 0.456543C11.0848 0.601403 11.1999 0.773369 11.2784 0.962708C11.357 1.15205 11.3975 1.35507 11.3976 1.56006V1.68701C11.3835 2.10255 11.2163 2.49822 10.9282 2.79797C10.64 3.09773 10.2513 3.28045 9.83667 3.31104V3.31104Z" fill="white"/>
<path d="M93.9363 5.53497V1.22095H91.2362V5.53497H88.9082V7.95599H91.2362V16.181C91.2362 19.688 93.4362 21.24 96.5742 21.24H98.0952V18.819H96.6262C96.2662 18.8718 95.8988 18.8403 95.5531 18.7269C95.2074 18.6135 94.8927 18.4213 94.6339 18.1655C94.3751 17.9097 94.1793 17.5973 94.0619 17.2529C93.9445 16.9085 93.9087 16.5416 93.9573 16.181V7.95599H98.0942V5.53497H93.9363Z" fill="white"/>
<path d="M102.729 5.53497V1.22095H100.029V5.53497H97.6992V7.95599H100.028V16.181C100.028 19.688 102.228 21.24 105.365 21.24H106.887V18.819H105.417C105.057 18.8718 104.69 18.8403 104.344 18.7269C103.998 18.6135 103.684 18.4213 103.425 18.1655C103.166 17.9097 102.97 17.5973 102.853 17.2529C102.735 16.9085 102.7 16.5416 102.748 16.181V7.95599H106.885V5.53497H102.729Z" fill="white"/>
<path d="M41.0483 5.32814C40.0006 5.29622 38.958 5.48723 37.9897 5.88857C37.0213 6.2899 36.1493 6.89241 35.4313 7.65614V5.54616H32.6953V26.6721H35.4273V19.2431C36.1622 19.9796 37.039 20.5594 38.0045 20.9472C38.97 21.3349 40.0041 21.5227 41.0443 21.4992C43.1888 21.4989 45.2454 20.6469 46.7617 19.1305C48.2781 17.6141 49.13 15.5576 49.1303 13.4132C49.1298 11.2696 48.2782 9.21386 46.7628 7.69783C45.2473 6.1818 43.1919 5.32947 41.0483 5.32814V5.32814ZM40.8933 18.9851C39.4203 18.9825 38.0085 18.3954 36.968 17.3528C35.9274 16.3102 35.3431 14.8972 35.3433 13.4241C35.3462 11.9531 35.9319 10.5431 36.9721 9.50288C38.0123 8.46269 39.4223 7.87707 40.8933 7.87416C42.3663 7.87655 43.7781 8.4634 44.8187 9.50587C45.8593 10.5483 46.4436 11.9612 46.4434 13.4342C46.4402 14.9048 45.8547 16.3143 44.815 17.3544C43.7753 18.3945 42.366 18.9804 40.8953 18.9841L40.8933 18.9851Z" fill="white"/>
<path d="M71.5044 0H68.7734V21.26H71.5044V0Z" fill="white"/>
<path d="M64.0367 5.55486V7.62486C63.2993 6.87986 62.4185 6.29195 61.4476 5.89665C60.4767 5.50135 59.4359 5.30687 58.3878 5.32488C56.2436 5.32514 54.1873 6.17705 52.6711 7.69322C51.1549 9.2094 50.303 11.2656 50.3027 13.4098C50.3027 15.5542 51.1545 17.6108 52.6707 19.1272C54.1869 20.6436 56.2434 21.4956 58.3878 21.4959C59.4423 21.5224 60.4907 21.326 61.4641 20.9195C62.4376 20.513 63.3142 19.9055 64.0367 19.1369L64.0577 21.2688H66.7578V5.55388L64.0367 5.55486ZM58.5787 19.0049H58.5637C57.0907 19.0022 55.6789 18.4151 54.6384 17.3725C53.5978 16.3299 53.0135 14.9169 53.0137 13.4439C53.0164 11.9728 53.602 10.5626 54.6422 9.52232C55.6825 8.48207 57.0926 7.89649 58.5637 7.89385C59.2934 7.89253 60.0162 8.03514 60.6907 8.31346C61.3652 8.59179 61.9783 9.00036 62.4947 9.51585C63.0111 10.0314 63.4208 10.6437 63.7003 11.3177C63.9799 11.9917 64.1238 12.7142 64.1238 13.4439C64.125 14.1732 63.9825 14.8955 63.7044 15.5697C63.4264 16.2439 63.0182 16.8567 62.5033 17.3731C61.9884 17.8895 61.3767 18.2994 60.7034 18.5794C60.03 18.8594 59.308 19.0039 58.5787 19.0049V19.0049Z" fill="white"/>
<path d="M89.146 12.8501C89.1707 11.8058 88.9796 10.7676 88.5845 9.80063C88.1895 8.83364 87.5991 7.95864 86.8503 7.23032C86.1015 6.502 85.2104 5.93606 84.2328 5.56796C83.2553 5.19986 82.2123 5.03748 81.1691 5.09103C79.07 5.03483 77.0344 5.81428 75.5096 7.25809C73.9848 8.70189 73.0954 10.692 73.037 12.791C73.037 12.925 73.037 13.055 73.037 13.191C72.9956 14.2714 73.1774 15.3488 73.571 16.3559C73.9646 17.3629 74.5615 18.278 75.3246 19.0439C76.0878 19.8099 77.0007 20.4102 78.0063 20.8075C79.0119 21.2048 80.0885 21.3906 81.1691 21.3531C82.6431 21.4291 84.1102 21.1059 85.4158 20.4175C86.7214 19.7292 87.8171 18.7012 88.5871 17.442L86.4761 16.169C85.9317 17.0568 85.156 17.7799 84.2324 18.261C83.3087 18.742 82.2716 18.9629 81.2321 18.9001C79.8726 18.9744 78.5383 18.5118 77.5165 17.612C76.4947 16.7121 75.8672 15.447 75.7691 14.089H89.053C89.1249 13.6801 89.1561 13.2651 89.146 12.8501V12.8501ZM75.8321 11.888C76.013 10.6182 76.6593 9.46088 77.6456 8.64078C78.6318 7.82067 79.8876 7.3963 81.1691 7.45004C82.4343 7.39238 83.6737 7.81938 84.6349 8.64401C85.5961 9.46865 86.2067 10.6288 86.3421 11.888H75.8321Z" fill="white"/>
<path d="M123.286 12.8501C123.31 11.8058 123.119 10.7676 122.724 9.80063C122.329 8.83364 121.739 7.95864 120.99 7.23032C120.241 6.502 119.35 5.93606 118.372 5.56796C117.395 5.19986 116.352 5.03748 115.309 5.09103C113.21 5.03457 111.174 5.81396 109.649 7.25784C108.125 8.70173 107.235 10.692 107.178 12.791C107.172 12.925 107.172 13.055 107.178 13.191C107.136 14.2713 107.318 15.3487 107.711 16.3556C108.105 17.3626 108.702 18.2776 109.465 19.0435C110.228 19.8095 111.141 20.4099 112.146 20.8072C113.152 21.2046 114.228 21.3904 115.309 21.3531C116.783 21.4297 118.25 21.1068 119.556 20.4184C120.862 19.73 121.957 18.7016 122.727 17.442L120.617 16.169C120.072 17.0569 119.296 17.78 118.372 18.261C117.449 18.7421 116.411 18.963 115.372 18.9001C114.012 18.9741 112.678 18.5114 111.656 17.6117C110.635 16.7119 110.007 15.4469 109.909 14.089H123.193C123.265 13.6802 123.296 13.2651 123.286 12.8501V12.8501ZM109.972 11.888C110.153 10.618 110.799 9.46054 111.785 8.64041C112.772 7.82028 114.028 7.39605 115.31 7.45004C116.575 7.39214 117.815 7.81903 118.776 8.64371C119.737 9.46839 120.348 10.6287 120.483 11.888H109.972Z" fill="white"/>
</g>
<defs>
<clipPath id="clip0">
<rect width="123.287" height="26.671" fill="white"/>
</clipPath>
</defs>
</svg>
