<svg width="109" height="24" viewBox="0 0 109 24" fill="none" xmlns="http://www.w3.org/2000/svg">
<g clip-path="url(#clip0)">
<path d="M28.3091 23.109V23.315H19.7341V23.109C20.6981 22.936 21.0771 22.695 21.1801 21.938V10.5C21.1801 8.40003 20.4231 7.36606 18.8731 7.36606C18.3611 7.37681 17.8656 7.5491 17.4573 7.85837C17.0491 8.16763 16.7491 8.59804 16.6001 9.08804C16.6691 9.48595 16.7026 9.88922 16.7001 10.2931V21.0381C16.7001 22.3131 17.0791 22.829 18.2501 23.105V23.311H10.0501V23.105C11.2211 22.829 11.6001 22.3131 11.6001 21.0381V10.5C11.6001 8.40003 10.8081 7.36606 9.29312 7.36606C8.81138 7.3707 8.34317 7.52586 7.95404 7.80991C7.56492 8.09395 7.27439 8.49263 7.12314 8.95004V21.0381C7.12314 22.3131 7.50213 22.829 8.67313 23.105V23.311H-0.00585938V23.105C1.33714 22.795 2.02612 22.205 2.02612 20.832V9.85001C2.02612 8.02401 1.54414 7.47303 -0.00585938 7.33603V7.12906L7.12314 5.16605V8.40304C7.42407 7.41532 8.04407 6.5553 8.88605 5.95761C9.72802 5.35992 10.7444 5.05828 11.7761 5.10001C14.3591 5.10001 15.9761 6.40904 16.4951 8.54404C16.8302 7.51961 17.4872 6.63084 18.3684 6.01022C19.2496 5.3896 20.3077 5.07033 21.3851 5.10001C24.5851 5.10001 26.2751 7.16602 26.2751 10.3V20.839C26.2761 22.213 26.9661 22.8 28.3091 23.109Z" fill="white"/>
<path d="M46.5296 19.561C45.9436 22.385 44.1186 23.832 41.7076 23.832C41.2726 23.8719 40.8342 23.8248 40.4176 23.6934C40.0011 23.5621 39.6149 23.3492 39.2815 23.0671C38.9481 22.785 38.6742 22.4393 38.4758 22.0503C38.2773 21.6613 38.1582 21.2366 38.1256 20.8011L38.0576 20.5261C37.7427 21.5253 37.1053 22.3919 36.2452 22.9902C35.3851 23.5884 34.3509 23.8844 33.3046 23.832C32.7134 23.878 32.1191 23.8007 31.5594 23.6051C30.9996 23.4095 30.4866 23.0998 30.0527 22.6956C29.6189 22.2913 29.2738 21.8014 29.0391 21.2569C28.8045 20.7123 28.6854 20.125 28.6896 19.532C28.6896 16.467 31.1696 14.4691 35.1296 13.6431L37.9886 13.0571V12.334C37.9886 9.68205 37.0236 7.85706 34.1306 7.85706C31.8926 7.85706 30.3086 8.92508 29.5506 11.6111L29.2756 11.5421C29.8266 7.58205 32.4436 5.10205 36.5076 5.10205C41.0876 5.10205 43.0856 8.02905 43.0856 12.438V19.36C43.0856 20.565 43.6706 21.1851 44.4286 21.1851C45.0826 21.1851 45.8406 20.806 46.2196 19.532L46.5296 19.561ZM37.9886 19.9401V13.9131L36.6456 14.1551C36.176 14.1986 35.7199 14.3352 35.3037 14.5569C34.8876 14.7787 34.5198 15.0812 34.2219 15.4467C33.924 15.8122 33.7019 16.2334 33.5686 16.6857C33.4353 17.138 33.3935 17.6124 33.4456 18.0811C33.4456 19.8371 34.3066 21.2151 35.9596 21.2151C36.3895 21.2466 36.8183 21.1399 37.1833 20.9105C37.5483 20.6812 37.8305 20.3411 37.9886 19.9401V19.9401Z" fill="white"/>
<path d="M65.2316 23.1089V23.3149H56.5536V23.1089C57.6896 22.8329 58.1036 22.3169 58.1036 21.0419V10.5419C58.1036 8.44188 57.3106 7.37391 55.6926 7.37391C55.1436 7.36922 54.6054 7.52693 54.1458 7.82728C53.6862 8.12763 53.3257 8.55719 53.1096 9.0619V21.0459C53.1096 22.3209 53.4886 22.8369 54.6596 23.1129V23.3189H45.9766V23.1129C47.3196 22.8029 48.0086 22.2129 48.0086 20.8399V9.84986C48.0086 8.02386 47.5266 7.47288 45.9766 7.33588V7.12891L53.1056 5.1659V8.5409C53.4559 7.49025 54.1423 6.58404 55.0587 5.96217C55.9752 5.34029 57.0708 5.03728 58.1766 5.09986C61.4486 5.09986 63.2056 7.09991 63.2056 10.3349V20.8349C63.2006 22.2129 63.8886 22.7999 65.2316 23.1089Z" fill="white"/>
<path d="M76.9426 19.251C76.1846 21.766 74.3256 23.832 71.3286 23.832C68.4356 23.832 67.0586 22.007 67.0586 19.32V6.37097H65.0586V6.19897C67.8033 4.65254 70.1869 2.53898 72.0506 -0.000976562H72.1876V5.68103H75.6666V6.37H72.1876V18.527C72.1876 20.111 72.8426 21.179 74.1166 21.179C74.7085 21.1782 75.2826 20.9769 75.7454 20.6078C76.2081 20.2388 76.5321 19.7238 76.6646 19.147L76.9426 19.251Z" fill="white"/>
<path d="M91.2346 17.0819C90.3736 22.0409 87.2397 23.8319 84.2437 23.8319C80.2487 23.8319 76.5977 20.732 76.5977 14.809C76.5977 9.16096 79.7316 5.09692 84.4506 5.09692C87.7906 5.09692 91.2346 7.19694 91.2006 12.8799H80.5927C80.9377 17.2879 83.2107 19.7339 86.5507 19.7339C87.4856 19.8201 88.4234 19.6017 89.2241 19.1113C90.0248 18.621 90.6455 17.8849 90.9937 17.0129L91.2346 17.0819ZM80.5587 11.64V12.0189H86.5167C86.5507 7.61092 85.4166 6.06091 83.6926 6.06091C81.7636 6.06091 80.5587 8.19995 80.5587 11.64Z" fill="white"/>
<path d="M104.427 5.09998V10.059H104.255C103.692 9.81198 103.078 9.70559 102.464 9.74902C100.225 9.74902 98.7443 10.955 98.7443 15.535V20.835C98.7443 22.384 99.6053 22.867 101.465 23.108V23.314H91.6152V23.108C92.9592 22.798 93.6473 22.208 93.6473 20.835V10.16C93.6473 8.19697 93.1312 7.508 91.6152 7.37V7.16302L98.5383 5.16302V12.877H98.7103C98.9853 7.33301 101.052 5.09399 104.048 5.09399L104.427 5.09998Z" fill="white"/>
<path d="M102.912 20.939C102.923 20.1877 103.229 19.4708 103.764 18.9426C104.298 18.4145 105.019 18.1173 105.77 18.115C106.516 18.1241 107.229 18.4245 107.757 18.9521C108.285 19.4798 108.585 20.1929 108.594 20.939C108.598 21.6923 108.303 22.4162 107.773 22.952C107.244 23.4878 106.523 23.7917 105.77 23.797C105.395 23.7979 105.023 23.7246 104.675 23.5813C104.328 23.438 104.013 23.2275 103.747 22.962C103.482 22.6964 103.271 22.381 103.128 22.0338C102.985 21.6866 102.911 21.3146 102.912 20.939Z" fill="white"/>
</g>
<defs>
<clipPath id="clip0">
<rect width="108.594" height="23.832" fill="white"/>
</clipPath>
</defs>
</svg>
