<svg width="131" height="24" viewBox="0 0 131 24" fill="none" xmlns="http://www.w3.org/2000/svg">
<g clip-path="url(#clip0)">
<path d="M40.7642 20.1663H38.7321L32.6602 3.69531H34.8171L39.7172 17.6663H39.7781L44.6782 3.69531H46.8351L40.7642 20.1663Z" fill="white"/>
<path d="M61.2617 18.3173V20.1663H51.0566V3.69531H61.2617V5.54431H53.1116V10.8293H60.8386V12.6553H53.1116V18.3173H61.2617Z" fill="white"/>
<path d="M68.3357 20.1663H66.3047V3.69531H68.3047L77.3227 16.6283H77.4227V3.69531H79.4547V20.1663H77.4547L68.4377 7.2793H68.3377L68.3357 20.1663Z" fill="white"/>
<path d="M87.0422 3.69531V14.2533C87.0195 14.824 87.1136 15.3934 87.3187 15.9265C87.5239 16.4595 87.8357 16.9451 88.2352 17.3533C88.6749 17.7645 89.1935 18.0822 89.7595 18.2873C90.3255 18.4923 90.9272 18.5804 91.5283 18.5463C92.1293 18.5804 92.731 18.4923 93.2971 18.2873C93.8631 18.0822 94.3816 17.7645 94.8213 17.3533C95.2208 16.9451 95.5326 16.4595 95.7378 15.9265C95.9429 15.3934 96.0371 14.824 96.0143 14.2533V3.69531H98.0693V14.3953C98.0991 15.2062 97.9574 16.0143 97.6534 16.7667C97.3495 17.519 96.89 18.1987 96.3052 18.7613C94.9986 19.9328 93.2807 20.5384 91.5283 20.4453C89.7758 20.5384 88.0579 19.9328 86.7513 18.7613C86.1668 18.1986 85.7076 17.5188 85.4038 16.7665C85.1 16.0141 84.9584 15.2061 84.9883 14.3953V3.69531H87.0422Z" fill="white"/>
<path d="M113.807 18.3173V20.1663H103.607V3.69531H113.807V5.54431H105.657V10.8293H113.385V12.6553H105.657V18.3173H113.807Z" fill="white"/>
<path d="M120.905 13.6482V20.1662H118.85V3.6952H125.025C126.424 3.62638 127.794 4.1077 128.843 5.03621C129.322 5.49444 129.697 6.04971 129.944 6.66487C130.192 7.28003 130.304 7.94085 130.276 8.60316C130.302 9.66374 129.995 10.7058 129.397 11.5822C128.806 12.4219 127.95 13.0376 126.966 13.3292L130.778 20.1662H128.37L124.842 13.6482H120.905ZM120.905 5.52119V11.8332H124.842C125.734 11.8908 126.613 11.596 127.291 11.0122C127.589 10.7037 127.82 10.3362 127.969 9.93324C128.117 9.53028 128.18 9.10076 128.153 8.67219C128.177 8.24394 128.109 7.81541 127.954 7.41554C127.799 7.01567 127.56 6.65377 127.253 6.3542C126.557 5.76571 125.662 5.46742 124.753 5.52119H120.905Z" fill="white"/>
<path d="M20.2696 23.8691H12.1786V22.2451H20.2696C20.8963 22.2587 21.5188 22.1411 22.0974 21.9001C22.676 21.659 23.1979 21.2996 23.6296 20.8451C24.0846 20.4124 24.4442 19.8894 24.6853 19.3095C24.9264 18.7297 25.0436 18.1059 25.0295 17.4781C25.0416 16.8491 24.9235 16.2244 24.6825 15.6433C24.4416 15.0621 24.0831 14.5371 23.6296 14.1012C23.4854 13.9599 23.3338 13.8264 23.1755 13.7011C22.919 14.2735 22.5586 14.7933 22.1125 15.2342C21.6542 15.7119 21.1024 16.0902 20.4914 16.3453C19.8805 16.6004 19.2236 16.727 18.5616 16.7171H12.4455V15.0932H18.5616C19.0092 15.103 19.4539 15.019 19.8672 14.8468C20.2805 14.6746 20.6533 14.4179 20.9615 14.0932C21.3005 13.7624 21.5669 13.3646 21.7436 12.9251C21.2582 12.7731 20.7522 12.6973 20.2436 12.7002H5.20958C4.52537 12.7077 3.84667 12.577 3.21416 12.316C2.58165 12.055 2.00832 11.669 1.52855 11.1811C1.03602 10.7025 0.64646 10.1284 0.383712 9.49386C0.120963 8.85934 -0.009452 8.17781 0.000532944 7.49112C-0.00703522 6.80676 0.123618 6.12794 0.384627 5.49527C0.645636 4.86259 1.03167 4.28906 1.51958 3.80911C2.02193 3.2994 2.62367 2.89845 3.28752 2.63113L3.29253 2.61215L3.32756 2.60214C3.53787 2.07667 3.85412 1.60009 4.25658 1.20211C4.6368 0.811653 5.09264 0.502845 5.59624 0.29446C6.09983 0.0860751 6.64058 -0.0174875 7.18553 -0.00986136H13.3855C13.9476 0.0136749 14.4844 0.230134 14.9056 0.603115L14.9206 0.617153C15.1324 0.804559 15.2962 1.03997 15.3984 1.30374C15.5005 1.5675 15.538 1.85193 15.5076 2.13314C15.4762 2.41021 15.3827 2.67665 15.2342 2.91262C15.0856 3.1486 14.8858 3.34802 14.6495 3.49612L14.6296 3.51016C14.1819 3.80309 13.6515 3.94336 13.1175 3.91012H5.21757C5.03904 3.91019 4.86068 3.92154 4.68358 3.94412C4.68358 4.01012 4.67656 4.07513 4.67656 4.14413C4.66964 4.47581 4.73153 4.8053 4.85838 5.11184C4.98523 5.41839 5.17429 5.69533 5.41356 5.92514C5.64333 6.1641 5.92013 6.35285 6.22649 6.47952C6.53284 6.60619 6.86209 6.66807 7.19353 6.66116H18.5785C19.2408 6.64906 19.8984 6.77369 20.5102 7.02731C21.1221 7.28093 21.6751 7.6581 22.1346 8.13516C22.6099 8.597 22.986 9.15082 23.2402 9.76291C23.4943 10.375 23.621 11.0325 23.6125 11.6952C23.6125 11.7862 23.6125 11.8771 23.6045 11.9691L23.6255 11.9792L23.6175 12.0232C24.0335 12.2872 24.4207 12.5942 24.7726 12.9391C25.3786 13.5266 25.8583 14.2318 26.1823 15.0113C26.5063 15.7907 26.6676 16.6281 26.6565 17.4721C26.6711 18.3151 26.5119 19.152 26.1888 19.9307C25.8657 20.7094 25.3856 21.4131 24.7785 21.9981C24.1952 22.6022 23.4939 23.08 22.7183 23.4019C21.9427 23.7237 21.1092 23.8827 20.2696 23.8691V23.8691ZM3.06956 4.61111C2.92889 4.71804 2.79526 4.83399 2.66954 4.95816C2.33139 5.28781 2.06411 5.68301 1.88408 6.11959C1.70404 6.55618 1.61505 7.02497 1.62254 7.49716C1.61274 7.96951 1.70067 8.43876 1.88084 8.87551C2.06102 9.31227 2.32954 9.70707 2.66954 10.0351C2.99908 10.3731 3.39415 10.6404 3.83055 10.8204C4.26695 11.0004 4.73554 11.0895 5.20756 11.0821H20.2405C20.8228 11.0802 21.4028 11.1549 21.9656 11.3042C21.8868 10.5364 21.5372 9.82167 20.9795 9.28811C20.6708 8.96447 20.2978 8.709 19.8845 8.53799C19.4712 8.36698 19.0267 8.28425 18.5796 8.29513H7.18553C6.64058 8.30276 6.09983 8.1992 5.59624 7.99081C5.09264 7.78243 4.6368 7.47362 4.25658 7.08316C3.58062 6.42552 3.15937 5.54971 3.06755 4.61111H3.06956ZM5.46953 2.30111H13.1996C13.3866 2.31588 13.5733 2.26847 13.7306 2.16616C13.7916 2.12316 13.8836 2.04713 13.8896 1.98513V1.95016C13.8946 1.91016 13.8475 1.85014 13.8045 1.81314C13.6628 1.69331 13.4842 1.62589 13.2986 1.62216H7.18455C6.86749 1.61585 6.5523 1.67258 6.25737 1.78915C5.96244 1.90572 5.69362 2.07974 5.46654 2.30111H5.46953ZM9.86955 23.3821L9.21953 22.8951C9.143 22.8356 9.07269 22.7687 9.00957 22.6952L8.98253 22.6662C8.5616 22.2562 8.22875 21.7647 8.0042 21.2217C7.77964 20.6787 7.66815 20.0957 7.67656 19.5081C7.66566 18.9188 7.77654 18.3337 8.0023 17.7892C8.22806 17.2448 8.56386 16.7528 8.98857 16.3441C9.39687 15.9362 9.87909 15.6097 10.4095 15.3821L11.1526 15.0561L11.8036 16.5442L11.0605 16.8691C10.7137 17.0179 10.3985 17.2314 10.1316 17.4981C9.86012 17.7564 9.64588 18.0687 9.50273 18.4149C9.35958 18.7612 9.29067 19.1336 9.30052 19.5081C9.29079 19.8827 9.35978 20.2551 9.50291 20.6013C9.64605 20.9475 9.86022 21.2598 10.1316 21.5182C10.1596 21.5462 10.1845 21.5731 10.2085 21.6001L10.2186 21.6111L10.8426 22.0782L9.86955 23.3821Z" fill="white"/>
<path d="M11.165 23.8562C11.092 23.8561 11.0193 23.846 10.949 23.8261C10.2816 23.6415 9.66747 23.3012 9.15703 22.8332C9.07807 22.7616 9.01399 22.6752 8.96843 22.5789C8.92288 22.4826 8.89679 22.3782 8.89159 22.2718C8.88639 22.1653 8.90222 22.0589 8.93816 21.9586C8.9741 21.8583 9.02946 21.7661 9.10106 21.6872C9.17263 21.6081 9.25902 21.5439 9.3554 21.4983C9.45177 21.4526 9.5562 21.4264 9.66271 21.4211C9.76922 21.4158 9.87576 21.4315 9.97619 21.4674C10.0766 21.5033 10.169 21.5586 10.248 21.6302C10.5456 21.9042 10.9001 22.109 11.2861 22.2301C11.304 22.2291 11.322 22.2291 11.34 22.2301H12.991C13.2064 22.2301 13.413 22.3157 13.5652 22.468C13.7175 22.6203 13.803 22.8268 13.803 23.0422C13.8028 23.2574 13.7172 23.4638 13.5649 23.616C13.4127 23.7682 13.2063 23.8539 12.991 23.8542H11.34C11.3109 23.854 11.2819 23.8524 11.253 23.8492C11.2238 23.853 11.1945 23.8553 11.165 23.8562V23.8562ZM10.732 16.9411C10.5748 16.9415 10.4208 16.8961 10.2889 16.8105C10.157 16.7249 10.0529 16.6029 9.98906 16.4591C9.9018 16.2623 9.89614 16.0389 9.97338 15.8379C10.0506 15.637 10.2044 15.4748 10.4011 15.3871C10.719 15.2513 11.0536 15.1581 11.396 15.1101C11.4453 15.1022 11.4952 15.0992 11.545 15.1012H13.261C13.4764 15.1012 13.6829 15.1867 13.8352 15.339C13.9875 15.4912 14.073 15.6978 14.073 15.9131C14.073 16.1285 13.9875 16.3351 13.8352 16.4873C13.6829 16.6396 13.4764 16.7251 13.261 16.7251H11.579C11.4007 16.7524 11.2264 16.8014 11.06 16.8711C10.9569 16.9174 10.8451 16.9412 10.732 16.9411V16.9411Z" fill="white"/>
</g>
<defs>
<clipPath id="clip0">
<rect width="130.778" height="23.869" fill="white"/>
</clipPath>
</defs>
</svg>
