<svg width="110" height="33" viewBox="0 0 110 33" fill="none" xmlns="http://www.w3.org/2000/svg">
<g clip-path="url(#clip0)">
<path d="M35.7754 20.8639L39.2194 19.9229C39.2756 20.6819 39.6301 21.3877 40.2054 21.8859C40.8778 22.4471 41.7378 22.7329 42.6124 22.6859C43.2634 22.7235 43.909 22.548 44.4514 22.1859C44.6548 22.0503 44.8219 21.8672 44.9384 21.6523C45.0548 21.4374 45.1169 21.1973 45.1194 20.9529C45.1205 20.75 45.0768 20.5493 44.9914 20.3652C44.906 20.1811 44.781 20.0182 44.6254 19.8879C44.2012 19.5522 43.6945 19.3366 43.1584 19.2639L40.6904 18.6999C39.4191 18.4655 38.2564 17.8301 37.3724 16.8869C36.6069 16.031 36.192 14.9181 36.2104 13.7699C36.2097 13.0533 36.3691 12.3456 36.6771 11.6985C36.9851 11.0514 37.4338 10.4813 37.9904 10.03C39.1952 8.98317 40.7489 8.42643 42.3444 8.46989C43.1564 8.45982 43.9654 8.57144 44.7444 8.80095C45.3695 8.97735 45.9618 9.2539 46.4984 9.61992C46.9402 9.93778 47.3316 10.3204 47.6594 10.7549C47.9484 11.1256 48.189 11.5315 48.3754 11.9629C48.5238 12.3187 48.6289 12.6911 48.6884 13.0719L45.4164 14.0129C45.3799 13.7427 45.3013 13.4798 45.1834 13.2339C45.0466 12.9524 44.8727 12.6904 44.6664 12.4549C44.41 12.1724 44.0898 11.9554 43.7324 11.8219C43.291 11.6524 42.8211 11.5699 42.3484 11.5789C41.7262 11.556 41.1161 11.7552 40.6274 12.1409C40.4172 12.2953 40.2457 12.4964 40.1267 12.7285C40.0076 12.9606 39.9442 13.2172 39.9414 13.478C39.9388 13.6845 39.9786 13.8893 40.0583 14.0798C40.1379 14.2704 40.2557 14.4426 40.4044 14.5859C40.7447 14.9105 41.1759 15.1236 41.6404 15.1969L44.1594 15.715C45.4739 15.9308 46.6898 16.5468 47.6414 17.4789C48.4353 18.3033 48.8704 19.4086 48.8514 20.5529C48.8514 21.2425 48.7173 21.9256 48.4564 22.5639C48.1872 23.2235 47.8029 23.8299 47.3214 24.3549C46.7758 24.9346 46.107 25.3844 45.3644 25.6709C44.501 26.0143 43.5784 26.1842 42.6494 26.1709C41.6048 26.1875 40.5666 26.0049 39.5904 25.6329C38.7847 25.3379 38.0561 24.8644 37.4594 24.2479C36.9821 23.7428 36.5821 23.17 36.2724 22.5479C36.0103 22.0197 35.8421 21.4499 35.7754 20.8639V20.8639Z" fill="white"/>
<path d="M48.8496 12.485V8.99103H49.7016C50.0553 9.01637 50.4103 8.96483 50.7422 8.84003C51.0742 8.71523 51.3752 8.5201 51.6246 8.26801C52.075 7.74025 52.308 7.06107 52.2766 6.36798V3.84399H55.8706V8.992H59.3306V12.486H55.8706V20.261C55.8438 20.5494 55.875 20.8403 55.9625 21.1165C56.0499 21.3926 56.1917 21.6485 56.3796 21.869C56.8322 22.239 57.4111 22.4184 57.9936 22.369C58.4536 22.3698 58.9126 22.3245 59.3636 22.234V25.498C58.5794 25.7762 57.7488 25.9001 56.9176 25.863C56.2485 25.8998 55.5788 25.8016 54.9485 25.5741C54.3181 25.3466 53.74 24.9946 53.2486 24.539C52.7878 24.0535 52.4313 23.4789 52.2008 22.8505C51.9704 22.2221 51.8709 21.5533 51.9086 20.885V12.485H48.8496Z" fill="white"/>
<path d="M60.319 21.1858C60.2902 20.5461 60.3993 19.9077 60.6387 19.3139C60.8782 18.72 61.2425 18.1846 61.707 17.7438C62.727 16.842 63.9993 16.2751 65.3519 16.1198L69.6309 15.4668C70.4549 15.3628 70.867 14.9878 70.867 14.3418C70.8751 14.0153 70.8083 13.6914 70.6717 13.3947C70.5351 13.0981 70.3323 12.8368 70.0789 12.6308C69.3936 12.1389 68.5571 11.9039 67.716 11.9668C66.8382 11.9228 65.9777 12.2215 65.3159 12.7998C64.7189 13.3543 64.3514 14.1125 64.2859 14.9248L60.6739 14.1248C60.7497 13.3503 60.9774 12.5983 61.3441 11.912C61.7108 11.2256 62.2093 10.6183 62.811 10.1248C64.1719 8.99427 65.9031 8.4076 67.6709 8.47781C68.7906 8.4568 69.9053 8.63141 70.965 8.99381C71.8176 9.27887 72.5885 9.76606 73.212 10.4138C73.7539 11.0007 74.1706 11.6917 74.4369 12.4448C74.7085 13.2338 74.8438 14.0634 74.837 14.8978V22.9888C74.823 23.8847 74.8956 24.7799 75.0539 25.6618H71.2909C71.1283 24.9665 71.0641 24.2519 71.1 23.5388C70.5996 24.3147 69.918 24.9572 69.1139 25.4108C68.1499 25.9482 67.0581 26.214 65.9549 26.1798C64.4557 26.2456 62.9907 25.7186 61.8769 24.7128C61.3809 24.2699 60.9853 23.7261 60.7166 23.1178C60.4479 22.5095 60.3123 21.8507 60.319 21.1858ZM64.281 20.8978C64.2761 21.1831 64.3309 21.4662 64.442 21.729C64.5531 21.9918 64.7179 22.2285 64.9259 22.4238C65.1674 22.6408 65.4495 22.8077 65.7559 22.915C66.0623 23.0223 66.3869 23.0678 66.711 23.0488C67.2499 23.0548 67.7867 22.9789 68.3029 22.8238C68.7812 22.6748 69.2273 22.4374 69.6179 22.1238C70.0409 21.77 70.3596 21.3078 70.5399 20.7868C70.7718 20.1298 70.8827 19.4363 70.867 18.7398V17.9868L66.522 18.6488C65.9208 18.7272 65.3556 18.9795 64.896 19.3748C64.6891 19.5692 64.5269 19.8063 64.4207 20.0696C64.3145 20.3329 64.2668 20.6162 64.281 20.8998V20.8978Z" fill="white"/>
<path d="M76.1678 17.282C76.144 15.6971 76.5328 14.1333 77.2958 12.744C78.0135 11.4336 79.0776 10.3456 80.3718 9.59898C81.6855 8.84395 83.1777 8.45513 84.6928 8.473C85.7014 8.46304 86.7045 8.62329 87.6598 8.947C88.4932 9.22105 89.2674 9.64986 89.9418 10.211C90.529 10.7088 91.0387 11.2916 91.4538 11.94C91.8437 12.5532 92.1343 13.2241 92.3148 13.928L88.7548 15.219C88.5442 14.3685 88.0879 13.5988 87.4428 13.006C86.6866 12.3676 85.7135 12.0453 84.7258 12.106C84.1162 12.0959 83.5112 12.2137 82.9499 12.4517C82.3886 12.6897 81.8833 13.0427 81.4668 13.488C81.0039 14.0016 80.6473 14.6019 80.4177 15.2541C80.188 15.9063 80.0899 16.5976 80.1288 17.288C80.0531 18.6982 80.5368 20.0813 81.4748 21.137C81.896 21.5946 82.4096 21.9575 82.9816 22.2018C83.5536 22.4461 84.171 22.5661 84.7928 22.554C85.369 22.5603 85.9414 22.461 86.4818 22.261C86.9517 22.0918 87.3792 21.8226 87.7348 21.472C88.0327 21.1749 88.2937 20.8428 88.5118 20.483C88.7049 20.1581 88.8592 19.8117 88.9718 19.451L92.4658 20.726C92.2577 21.422 91.9448 22.0823 91.5378 22.684C91.1002 23.3311 90.5775 23.9163 89.9838 24.424C89.3126 24.9893 88.5413 25.4234 87.7098 25.704C86.7719 26.0287 85.7853 26.1901 84.7928 26.181C83.6467 26.2086 82.5075 25.9963 81.4483 25.5579C80.389 25.1195 79.4331 24.4645 78.6418 23.635C77.8249 22.7958 77.1849 21.801 76.7599 20.7096C76.3349 19.6183 76.1335 18.4526 76.1678 17.282V17.282Z" fill="white"/>
<path d="M93.9219 25.6569V0.866943H97.8839V15.728L104.284 8.99097H109.55L102.713 16.0449L109.7 25.6569H104.836L99.9359 18.8369L97.8799 20.9929V25.6569H93.9219Z" fill="white"/>
<path d="M19.0339 14.226C18.7196 14.1935 18.4039 14.1771 18.0879 14.177H9.1449V17.886H18.0899C18.4059 17.8858 18.7216 17.8695 19.0359 17.837C20.276 18.0577 21.3988 18.7082 22.2071 19.6743C23.0154 20.6404 23.4575 21.8604 23.4559 23.12C23.4568 23.8249 23.3187 24.5231 23.0493 25.1746C22.78 25.826 22.3848 26.4179 21.8863 26.9164C21.3878 27.4148 20.7959 27.8101 20.1445 28.0794C19.493 28.3487 18.7948 28.4869 18.0899 28.486H9.14688V32.063H18.0899C20.4614 32.0619 22.7355 31.1194 24.4124 29.4425C26.0893 27.7656 27.0318 25.4915 27.0329 23.12C27.0336 21.7497 26.7191 20.3976 26.1135 19.1683C25.508 17.9391 24.6277 16.8656 23.5409 16.031C24.6278 15.1967 25.508 14.1234 26.1136 12.8943C26.7191 11.6652 27.0337 10.3132 27.0329 8.94299C27.0318 6.57149 26.0893 4.29745 24.4124 2.62054C22.7355 0.943636 20.4614 0.00106001 18.0899 0H9.14688V3.57703H18.0899C18.7948 3.5761 19.493 3.71424 20.1445 3.98358C20.7959 4.25292 21.3878 4.64814 21.8863 5.14661C22.3848 5.64507 22.78 6.23698 23.0493 6.88843C23.3187 7.53988 23.4568 8.23806 23.4559 8.94299C23.4575 10.2026 23.0154 11.4226 22.2071 12.3887C21.3988 13.3548 20.276 14.0053 19.0359 14.226H19.0339ZM8.94388 10.795H17.8899V7.21802H8.9469C6.57539 7.21908 4.30133 8.16159 2.62442 9.8385C0.947512 11.5154 0.00496626 13.7895 0.00390625 16.161C0.00470142 18.5326 0.94715 20.8068 2.62411 22.4838C4.30108 24.1607 6.57531 25.1032 8.9469 25.104H17.8899V21.527H8.9469C8.24197 21.5279 7.54378 21.3898 6.89233 21.1204C6.24088 20.8511 5.64898 20.4559 5.15051 19.9574C4.65205 19.4589 4.25683 18.867 3.98749 18.2156C3.71815 17.5641 3.57998 16.8659 3.5809 16.161C3.57998 15.4563 3.71803 14.7584 3.98718 14.1071C4.25634 13.4559 4.6513 12.8641 5.14944 12.3657C5.64759 11.8672 6.23916 11.472 6.89026 11.2025C7.54136 10.9329 8.2392 10.7945 8.94388 10.795V10.795Z" fill="white"/>
</g>
<defs>
<clipPath id="clip0">
<rect width="109.7" height="32.063" fill="white"/>
</clipPath>
</defs>
</svg>
