<svg width="24" height="24" viewBox="0 0 24 24" fill="none" xmlns="http://www.w3.org/2000/svg">
<path fill-rule="evenodd" clip-rule="evenodd" d="M16 3H8C5.23858 3 3 5.23858 3 8V16C3 18.7614 5.23858 21 8 21H16C18.7614 21 21 18.7614 21 16V8C21 5.23858 18.7614 3 16 3ZM19.25 16.0001C19.2445 17.7927 17.7927 19.2446 16 19.2501H8.00002C6.20737 19.2446 4.75551 17.7927 4.75002 16.0001V8.00008C4.75551 6.20744 6.20737 4.75557 8.00002 4.75008H16C17.7927 4.75557 19.2445 6.20744 19.25 8.00008V16.0001ZM16.75 8.25008C17.3023 8.25008 17.75 7.80237 17.75 7.25008C17.75 6.6978 17.3023 6.25008 16.75 6.25008C16.1977 6.25008 15.75 6.6978 15.75 7.25008C15.75 7.80237 16.1977 8.25008 16.75 8.25008ZM12 7.5C9.51472 7.5 7.5 9.51472 7.5 12C7.5 14.4853 9.51472 16.5 12 16.5C14.4853 16.5 16.5 14.4853 16.5 12C16.5027 10.8057 16.0294 9.65957 15.1849 8.81508C14.3404 7.97059 13.1943 7.49734 12 7.5ZM9.25002 12.0001C9.25002 13.5189 10.4812 14.7501 12 14.7501C13.5188 14.7501 14.75 13.5189 14.75 12.0001C14.75 10.4813 13.5188 9.25008 12 9.25008C10.4812 9.25008 9.25002 10.4813 9.25002 12.0001Z" fill="white"/>
</svg>
