<svg width="102" height="33" viewBox="0 0 102 33" fill="none" xmlns="http://www.w3.org/2000/svg">
<path d="M8.208 26.36C9.088 26.36 9.94 26.248 10.764 26.024C11.596 25.8 12.34 25.464 12.996 25.016C13.652 24.56 14.172 23.988 14.556 23.3C14.948 22.604 15.144 21.792 15.144 20.864C15.144 19.992 14.98 19.272 14.652 18.704C14.332 18.136 13.92 17.68 13.416 17.336C12.92 16.984 12.4 16.712 11.856 16.52C11.312 16.32 10.816 16.16 10.368 16.04L7.368 15.224C7 15.128 6.64 15.008 6.288 14.864C5.936 14.72 5.644 14.532 5.412 14.3C5.18 14.06 5.064 13.752 5.064 13.376C5.064 12.968 5.204 12.616 5.484 12.32C5.772 12.024 6.14 11.8 6.588 11.648C7.044 11.488 7.528 11.416 8.04 11.432C8.824 11.456 9.544 11.688 10.2 12.128C10.856 12.568 11.28 13.208 11.472 14.048L15 13.448C14.584 11.824 13.776 10.58 12.576 9.716C11.376 8.852 9.88 8.408 8.088 8.384C6.904 8.376 5.824 8.56 4.848 8.936C3.872 9.312 3.092 9.884 2.508 10.652C1.924 11.42 1.632 12.384 1.632 13.544C1.632 14.368 1.768 15.052 2.04 15.596C2.32 16.132 2.668 16.564 3.084 16.892C3.5 17.22 3.928 17.472 4.368 17.648C4.816 17.824 5.208 17.96 5.544 18.056L10.032 19.376C10.704 19.576 11.152 19.828 11.376 20.132C11.6 20.428 11.712 20.752 11.712 21.104C11.712 21.584 11.548 21.988 11.22 22.316C10.9 22.644 10.488 22.892 9.984 23.06C9.48 23.228 8.96 23.312 8.424 23.312C7.464 23.312 6.608 23.044 5.856 22.508C5.104 21.972 4.608 21.208 4.368 20.216L0.96 20.72C1.136 21.888 1.552 22.896 2.208 23.744C2.872 24.584 3.716 25.232 4.74 25.688C5.772 26.136 6.928 26.36 8.208 26.36ZM20.1816 26.36C21.1816 26.36 22.0216 26.208 22.7016 25.904C23.3896 25.592 24.0216 25.096 24.5976 24.416V26H27.4536V18.08C27.4536 17.488 27.4296 16.952 27.3816 16.472C27.3336 15.992 27.1816 15.512 26.9256 15.032C26.4696 14.168 25.7976 13.56 24.9096 13.208C24.0216 12.856 23.0056 12.68 21.8616 12.68C20.3016 12.68 19.0696 13.016 18.1656 13.688C17.2616 14.36 16.6456 15.232 16.3176 16.304L19.2696 17.24C19.4776 16.648 19.8416 16.236 20.3616 16.004C20.8816 15.772 21.3816 15.656 21.8616 15.656C22.6296 15.656 23.2016 15.8 23.5776 16.088C23.9536 16.368 24.1736 16.812 24.2376 17.42C23.0216 17.596 21.9496 17.768 21.0216 17.936C20.0936 18.096 19.3176 18.288 18.6936 18.512C17.6536 18.896 16.9216 19.42 16.4976 20.084C16.0736 20.74 15.8616 21.52 15.8616 22.424C15.8616 23.144 16.0256 23.804 16.3536 24.404C16.6896 24.996 17.1776 25.472 17.8176 25.832C18.4656 26.184 19.2536 26.36 20.1816 26.36ZM20.8776 23.792C20.3176 23.792 19.8736 23.668 19.5456 23.42C19.2176 23.164 19.0536 22.816 19.0536 22.376C19.0536 22.048 19.1576 21.768 19.3656 21.536C19.5736 21.296 19.9176 21.08 20.3976 20.888C20.7656 20.752 21.2176 20.628 21.7536 20.516C22.2976 20.396 23.1176 20.244 24.2136 20.06C24.2056 20.372 24.1816 20.716 24.1416 21.092C24.1016 21.46 24.0136 21.784 23.8776 22.064C23.7896 22.248 23.6216 22.476 23.3736 22.748C23.1336 23.02 22.8056 23.264 22.3896 23.48C21.9816 23.688 21.4776 23.792 20.8776 23.792ZM32.409 26H35.673L40.377 13.04H37.113L34.041 22.016L30.969 13.04H27.705L32.409 26ZM44.2191 26.36C45.2191 26.36 46.0591 26.208 46.7391 25.904C47.4271 25.592 48.0591 25.096 48.6351 24.416V26H51.4911V18.08C51.4911 17.488 51.4671 16.952 51.4191 16.472C51.3711 15.992 51.2191 15.512 50.9631 15.032C50.5071 14.168 49.8351 13.56 48.9471 13.208C48.0591 12.856 47.0431 12.68 45.8991 12.68C44.3391 12.68 43.1071 13.016 42.2031 13.688C41.2991 14.36 40.6831 15.232 40.3551 16.304L43.3071 17.24C43.5151 16.648 43.8791 16.236 44.3991 16.004C44.9191 15.772 45.4191 15.656 45.8991 15.656C46.6671 15.656 47.2391 15.8 47.6151 16.088C47.9911 16.368 48.2111 16.812 48.2751 17.42C47.0591 17.596 45.9871 17.768 45.0591 17.936C44.1311 18.096 43.3551 18.288 42.7311 18.512C41.6911 18.896 40.9591 19.42 40.5351 20.084C40.1111 20.74 39.8991 21.52 39.8991 22.424C39.8991 23.144 40.0631 23.804 40.3911 24.404C40.7271 24.996 41.2151 25.472 41.8551 25.832C42.5031 26.184 43.2911 26.36 44.2191 26.36ZM44.9151 23.792C44.3551 23.792 43.9111 23.668 43.5831 23.42C43.2551 23.164 43.0911 22.816 43.0911 22.376C43.0911 22.048 43.1951 21.768 43.4031 21.536C43.6111 21.296 43.9551 21.08 44.4351 20.888C44.8031 20.752 45.2551 20.628 45.7911 20.516C46.3351 20.396 47.1551 20.244 48.2511 20.06C48.2431 20.372 48.2191 20.716 48.1791 21.092C48.1391 21.46 48.0511 21.784 47.9151 22.064C47.8271 22.248 47.6591 22.476 47.4111 22.748C47.1711 23.02 46.8431 23.264 46.4271 23.48C46.0191 23.688 45.5151 23.792 44.9151 23.792ZM53.3873 26H56.6993V19.424C56.6993 18.616 56.7873 17.968 56.9633 17.48C57.1473 16.992 57.3793 16.624 57.6593 16.376C57.9393 16.12 58.2393 15.948 58.5593 15.86C58.8793 15.772 59.1793 15.728 59.4593 15.728C60.1553 15.728 60.6913 15.884 61.0673 16.196C61.4513 16.508 61.7273 16.896 61.8953 17.36C62.0633 17.824 62.1633 18.288 62.1953 18.752C62.2273 19.208 62.2433 19.584 62.2433 19.88V26H65.5553V18.728C65.5553 18.512 65.5393 18.168 65.5073 17.696C65.4753 17.224 65.3833 16.704 65.2313 16.136C65.0793 15.56 64.8233 15.008 64.4633 14.48C64.1113 13.952 63.6153 13.516 62.9753 13.172C62.3353 12.828 61.5073 12.656 60.4913 12.656C59.5553 12.656 58.7393 12.812 58.0433 13.124C57.3473 13.436 56.7633 13.852 56.2913 14.372V13.04H53.3873V26ZM67.4451 26H70.7571V19.424C70.7571 18.616 70.8451 17.968 71.0211 17.48C71.2051 16.992 71.4371 16.624 71.7171 16.376C71.9971 16.12 72.2971 15.948 72.6171 15.86C72.9371 15.772 73.2371 15.728 73.5171 15.728C74.2131 15.728 74.7491 15.884 75.1251 16.196C75.5091 16.508 75.7851 16.896 75.9531 17.36C76.1211 17.824 76.2211 18.288 76.2531 18.752C76.2851 19.208 76.3011 19.584 76.3011 19.88V26H79.6131V18.728C79.6131 18.512 79.5971 18.168 79.5651 17.696C79.5331 17.224 79.4411 16.704 79.2891 16.136C79.1371 15.56 78.8811 15.008 78.5211 14.48C78.1691 13.952 77.6731 13.516 77.0331 13.172C76.3931 12.828 75.5651 12.656 74.5491 12.656C73.6131 12.656 72.7971 12.812 72.1011 13.124C71.4051 13.436 70.8211 13.852 70.3491 14.372V13.04H67.4451V26ZM85.1269 26.36C86.1269 26.36 86.9669 26.208 87.6469 25.904C88.3349 25.592 88.9669 25.096 89.5429 24.416V26H92.3989V18.08C92.3989 17.488 92.3749 16.952 92.3269 16.472C92.2789 15.992 92.1269 15.512 91.8709 15.032C91.4149 14.168 90.7429 13.56 89.8549 13.208C88.9669 12.856 87.9509 12.68 86.8069 12.68C85.2469 12.68 84.0149 13.016 83.1109 13.688C82.2069 14.36 81.5909 15.232 81.2629 16.304L84.2149 17.24C84.4229 16.648 84.7869 16.236 85.3069 16.004C85.8269 15.772 86.3269 15.656 86.8069 15.656C87.5749 15.656 88.1469 15.8 88.5229 16.088C88.8989 16.368 89.1189 16.812 89.1829 17.42C87.9669 17.596 86.8949 17.768 85.9669 17.936C85.0389 18.096 84.2629 18.288 83.6389 18.512C82.5989 18.896 81.8669 19.42 81.4429 20.084C81.0189 20.74 80.8069 21.52 80.8069 22.424C80.8069 23.144 80.9709 23.804 81.2989 24.404C81.6349 24.996 82.1229 25.472 82.7629 25.832C83.4109 26.184 84.1989 26.36 85.1269 26.36ZM85.8229 23.792C85.2629 23.792 84.8189 23.668 84.4909 23.42C84.1629 23.164 83.9989 22.816 83.9989 22.376C83.9989 22.048 84.1029 21.768 84.3109 21.536C84.5189 21.296 84.8629 21.08 85.3429 20.888C85.7109 20.752 86.1629 20.628 86.6989 20.516C87.2429 20.396 88.0629 20.244 89.1589 20.06C89.1509 20.372 89.1269 20.716 89.0869 21.092C89.0469 21.46 88.9589 21.784 88.8229 22.064C88.7349 22.248 88.5669 22.476 88.3189 22.748C88.0789 23.02 87.7509 23.264 87.3349 23.48C86.9269 23.688 86.4229 23.792 85.8229 23.792Z" fill="white"/>
<circle r="3" transform="matrix(-1 0 0 1 99 23)" fill="#FF7967"/>
</svg>
