<svg width="40" height="35" viewBox="0 0 40 35" fill="none" xmlns="http://www.w3.org/2000/svg">
<path d="M40 0.311498C34.3643 -0.591847 30.126 0.469586 27.2852 3.4958C24.4444 6.522 23.0241 10.9936 23.0241 16.9105V35H40V17.588H31.2027C30.8362 14.5166 31.2486 11.9873 32.4399 9.99989C33.677 8.01252 35.8763 7.13176 39.0378 7.3576L40 0.311498ZM16.9759 0.311498C11.3402 -0.591847 7.10195 0.469586 4.26117 3.4958C1.42039 6.522 0 10.9936 0 16.9105V35H16.9759V17.588H8.17869C7.81214 14.5166 8.22451 11.9873 9.41581 9.99989C10.6529 8.01252 12.8522 7.13176 16.0137 7.3576L16.9759 0.311498Z" fill="#FF7967"/>
</svg>
